<svg width="24" height="24" viewBox="0 0 24 24" fill="none" xmlns="http://www.w3.org/2000/svg">
<g id="Layer_1" clip-path="url(#clip0_6867_239689)">
<path id="Vector" d="M24 12C24 15.32 22.66 18.32 20.49 20.49C19.95 21.03 19.37 21.51 18.73 21.94C16.82 23.24 14.5 24 12 24C9.5 24 7.19 23.24 5.27 21.93C2.09 19.77 0 16.13 0 12C0 8.68 1.34 5.68 3.52 3.51C5.69 1.34 8.69 0 12 0C15.31 0 18.32 1.34 20.49 3.51C22.66 5.68 24 8.68 24 12Z" fill="#565EFF"/>
<path id="Vector_2" d="M12 11C14.2091 11 16 9.20914 16 7C16 4.79086 14.2091 3 12 3C9.79086 3 8 4.79086 8 7C8 9.20914 9.79086 11 12 11Z" fill="#F2F2F2"/>
<path id="Vector_3" d="M19 20C19 20.67 18.91 21.33 18.73 21.94C16.82 23.24 14.5 24 12 24C9.5 24 7.19 23.24 5.27 21.93C5.09 21.32 5 20.67 5 20C5 16.14 8.14 13 12 13C15.86 13 19 16.14 19 20Z" fill="#F2F2F2"/>
</g>
<defs>
<clipPath id="clip0_6867_239689">
<rect width="24" height="24" fill="white"/>
</clipPath>
</defs>
</svg>
