<svg width="25" height="24" viewBox="0 0 25 24" fill="none" xmlns="http://www.w3.org/2000/svg">
<g id="Layer_1" clip-path="url(#clip0_7008_7414)">
<path id="Vector" d="M24.7998 12C24.7998 15.32 23.4598 18.32 21.2898 20.49C20.7498 21.03 20.1698 21.51 19.5298 21.94C17.6198 23.24 15.2998 24 12.7998 24C10.2998 24 7.9898 23.24 6.0698 21.93C2.8898 19.77 0.799805 16.13 0.799805 12C0.799805 8.68 2.1398 5.68 4.3198 3.51C6.4898 1.34 9.48981 0 12.7998 0C16.1098 0 19.1198 1.34 21.2898 3.51C23.4598 5.68 24.7998 8.68 24.7998 12Z" fill="#CCCCCC"/>
<path id="Vector_2" d="M12.7998 11C15.0089 11 16.7998 9.20914 16.7998 7C16.7998 4.79086 15.0089 3 12.7998 3C10.5907 3 8.7998 4.79086 8.7998 7C8.7998 9.20914 10.5907 11 12.7998 11Z" fill="#F2F2F2"/>
<path id="Vector_3" d="M19.7998 20C19.7998 20.67 19.7098 21.33 19.5298 21.94C17.6198 23.24 15.2998 24 12.7998 24C10.2998 24 7.9898 23.24 6.0698 21.93C5.8898 21.32 5.7998 20.67 5.7998 20C5.7998 16.14 8.9398 13 12.7998 13C16.6598 13 19.7998 16.14 19.7998 20Z" fill="#F2F2F2"/>
</g>
<defs>
<clipPath id="clip0_7008_7414">
<rect width="24" height="24" fill="white" transform="translate(0.799805)"/>
</clipPath>
</defs>
</svg>
