<svg width="24" height="24" viewBox="0 0 24 24" fill="none" xmlns="http://www.w3.org/2000/svg">
<g clip-path="url(#clip0_5796_85103)">
<path d="M0.989676 12.0164C1.31104 12.1723 1.63241 12.3283 1.95358 12.484C2.27723 12.641 2.60109 12.7983 2.92475 12.9552V7.86279C2.59507 8.03225 2.26538 8.2015 1.93549 8.37096C1.6083 8.53917 1.2809 8.70717 0.953714 8.87539C0.36814 9.17651 0 9.77916 0 10.4371C0 11.0949 0.384354 11.7227 0.989676 12.0164Z" fill="#A0A0A0"/>
<path d="M6.82971 21.8845C7.01409 22.1966 7.297 22.4352 7.62835 22.5665C8.02372 22.7231 8.47584 22.7164 8.86664 22.5484C9.09904 22.4483 9.30213 22.2959 9.46198 22.1071C9.7819 21.7296 9.869 21.276 9.82888 20.7948C9.6684 18.8698 9.59086 17.8268 9.43039 15.9018C9.3805 15.3026 9.3173 14.5988 9.19799 13.2224C8.79326 13.2561 8.38854 13.2897 7.98381 13.3233C7.32008 13.3786 6.18822 13.465 5.52448 13.5202C4.9414 13.5686 4.82624 13.586 4.24316 13.6344C4.41258 14.1843 4.64311 14.9338 4.7512 15.2844C5.29541 17.0518 5.83962 18.8191 6.38362 20.5866C6.48111 20.9035 6.57881 21.2204 6.6763 21.5373C6.71434 21.6608 6.7661 21.7771 6.82971 21.8845Z" fill="#5F5F5F"/>
<path d="M2.76574 13.7245C3.06445 14.0229 3.47707 14.2075 3.93293 14.2075H10.764V6.6106H3.93293C3.47707 6.6106 3.06445 6.79521 2.76574 7.09363C2.46702 7.39205 2.28223 7.80428 2.28223 8.25969V12.5586C2.28223 13.0141 2.46702 13.4263 2.76574 13.7247V13.7245Z" fill="#7F7F7F"/>
<path d="M18.6598 8.01566C18.6093 8.06612 18.5781 8.13569 18.5781 8.21274V12.6053C18.5781 12.6824 18.6093 12.752 18.6598 12.8024C18.7103 12.8529 18.78 12.884 18.8571 12.884H20.7138C21.1661 12.884 21.637 12.9231 22.081 12.8209C22.541 12.715 22.9519 12.4814 23.2744 12.1591C23.5309 11.9028 23.7259 11.593 23.8489 11.2565C23.9553 10.9654 24.0077 10.6541 23.9992 10.3405C23.9813 9.68428 23.7078 9.0918 23.2746 8.65881C22.9522 8.33672 22.5412 8.10288 22.0812 7.99697C21.6372 7.8948 21.1663 7.93384 20.714 7.93384H18.8573C18.7802 7.93384 18.7105 7.96499 18.66 8.01545L18.6598 8.01566Z" fill="#C3C3C3"/>
<path d="M10.7646 14.217C12.2432 14.9345 13.7218 15.6519 15.2006 16.3694C16.6532 17.0743 18.106 17.7793 19.5586 18.4841C19.6183 18.513 19.6786 18.5354 19.7393 18.5518C19.8407 18.5792 19.943 18.5896 20.043 18.5851C20.2949 18.5732 20.5323 18.4654 20.7078 18.2912C20.8867 18.1134 21.0013 17.8665 21.0013 17.5818V3.00429C21.0013 2.71916 20.8865 2.47245 20.7076 2.2949C20.5307 2.11921 20.2908 2.01122 20.0372 2.00084C19.9363 1.99668 19.8335 2.0079 19.7314 2.03635C19.6663 2.05442 19.6017 2.07975 19.5383 2.11236C18.0909 2.85602 16.6435 3.59968 15.1961 4.34334C13.7189 5.10216 12.242 5.86119 10.7649 6.62002V14.217H10.7646Z" fill="#A0A0A0"/>
</g>
<defs>
<clipPath id="clip0_5796_85103">
<rect width="24" height="20.6792" fill="white" transform="translate(0 2)"/>
</clipPath>
</defs>
</svg>
