<svg width="24" height="21" viewBox="0 0 24 21" fill="none" xmlns="http://www.w3.org/2000/svg">
<g id="house" clip-path="url(#clip0_7600_29595)">
<path id="Vector" d="M0.989676 10.0164C1.31104 10.1723 1.63241 10.3283 1.95358 10.484C2.27723 10.641 2.60109 10.7983 2.92475 10.9552V5.86279C2.59507 6.03225 2.26538 6.2015 1.93549 6.37096C1.6083 6.53917 1.2809 6.70717 0.953714 6.87539C0.36814 7.17651 0 7.77916 0 8.43706C0 9.09495 0.384354 9.72273 0.989676 10.0164Z" fill="#A0A0A0"/>
<path id="Vector_2" d="M6.82971 19.8845C7.01409 20.1966 7.297 20.4352 7.62835 20.5665C8.02372 20.7231 8.47584 20.7164 8.86664 20.5484C9.09904 20.4483 9.30213 20.2959 9.46198 20.1071C9.7819 19.7296 9.869 19.276 9.82888 18.7948C9.6684 16.8698 9.59086 15.8268 9.43039 13.9018C9.3805 13.3026 9.3173 12.5988 9.19799 11.2224C8.79326 11.2561 8.38854 11.2897 7.98381 11.3233C7.32008 11.3786 6.18822 11.465 5.52448 11.5202C4.9414 11.5686 4.82624 11.586 4.24316 11.6344C4.41258 12.1843 4.64311 12.9338 4.7512 13.2844C5.29541 15.0518 5.83962 16.8191 6.38362 18.5866C6.48111 18.9035 6.57881 19.2204 6.6763 19.5373C6.71434 19.6608 6.7661 19.7771 6.82971 19.8845Z" fill="#5F5F5F"/>
<path id="Vector_3" d="M2.76574 11.7245C3.06445 12.0229 3.47707 12.2075 3.93293 12.2075H10.764V4.6106H3.93293C3.47707 4.6106 3.06445 4.79521 2.76574 5.09363C2.46702 5.39205 2.28223 5.80428 2.28223 6.25969V10.5586C2.28223 11.0141 2.46702 11.4263 2.76574 11.7247V11.7245Z" fill="#7F7F7F"/>
<path id="Vector_4" d="M18.6598 6.01566C18.6093 6.06612 18.5781 6.13569 18.5781 6.21274V10.6053C18.5781 10.6824 18.6093 10.752 18.6598 10.8024C18.7103 10.8529 18.78 10.884 18.8571 10.884H20.7138C21.1661 10.884 21.637 10.9231 22.081 10.8209C22.541 10.715 22.9519 10.4814 23.2744 10.1591C23.5309 9.90281 23.7259 9.59296 23.8489 9.25654C23.9553 8.96539 24.0077 8.65409 23.9992 8.34051C23.9813 7.68428 23.7078 7.0918 23.2746 6.65881C22.9522 6.33672 22.5412 6.10288 22.0812 5.99697C21.6372 5.8948 21.1663 5.93384 20.714 5.93384H18.8573C18.7802 5.93384 18.7105 5.96499 18.66 6.01545L18.6598 6.01566Z" fill="#C3C3C3"/>
<path id="Vector_5" d="M10.7646 12.217C12.2432 12.9345 13.7218 13.6519 15.2006 14.3694C16.6532 15.0743 18.106 15.7793 19.5586 16.4841C19.6183 16.513 19.6786 16.5354 19.7393 16.5518C19.8407 16.5792 19.943 16.5896 20.043 16.5851C20.2949 16.5732 20.5323 16.4654 20.7078 16.2912C20.8867 16.1134 21.0013 15.8665 21.0013 15.5818V1.00429C21.0013 0.719164 20.8865 0.472453 20.7076 0.294896C20.5307 0.119209 20.2908 0.0112208 20.0372 0.000837344C19.9363 -0.00331603 19.8335 0.00789808 19.7314 0.0363487C19.6663 0.0544159 19.6017 0.0797515 19.5383 0.112355C18.0909 0.856018 16.6435 1.59968 15.1961 2.34334C13.7189 3.10216 12.242 3.86119 10.7649 4.62002V12.217H10.7646Z" fill="#A0A0A0"/>
</g>
<defs>
<clipPath id="clip0_7600_29595">
<rect width="24" height="20.6792" fill="white"/>
</clipPath>
</defs>
</svg>
