<svg width="24" height="24" viewBox="0 0 24 24" fill="none" xmlns="http://www.w3.org/2000/svg">
<path d="M20.6899 15.6077L20.6816 15.6167L20.6736 15.6258C19.499 16.9743 17.546 18.5198 15.6795 19.8173C14.1746 20.8635 12.8137 21.6882 12.0572 22.0899L12.0957 21.859L12.112 21.7608L12.1165 21.7337L12.1177 21.7266L12.118 21.7248L12.1181 21.7243L12.1181 21.7242L12.1181 21.7242L11.1317 21.5599L12.1181 21.7241L12.1208 21.7079L12.123 21.6915C12.1457 21.5208 12.1724 21.277 12.1727 21.0194C12.1731 20.7807 12.1524 20.4344 12.0204 20.1054L12.0202 20.1049C11.8107 19.5835 11.359 19.3156 11.0929 19.1879C10.7929 19.044 10.4758 18.9598 10.2451 18.9102L10.2057 18.9018L10.1657 18.8965C4.73423 18.1807 1 14.4541 1 10.309C1 5.69532 5.72705 1.6001 12 1.6001C18.2729 1.6001 23 5.69532 23 10.309C23 12.1494 22.2967 13.8513 20.6899 15.6077Z" stroke="#0050B5" stroke-width="2"/>
<path d="M7.76171 13.2387C7.76171 13.3685 7.66048 13.4748 7.53676 13.4748L7.54013 13.4712H4.16587C4.04215 13.4712 3.94092 13.365 3.94092 13.2351V7.7426C3.94092 7.61275 4.04215 7.50651 4.16587 7.50651H5.02068C5.1444 7.50651 5.24563 7.61275 5.24563 7.7426V12.1102H7.53676C7.66048 12.1102 7.76171 12.2164 7.76171 12.3463V13.2387ZM9.79526 13.2339C9.79526 13.3673 9.69291 13.4748 9.56581 13.4748H8.7155C8.5884 13.4748 8.48605 13.3673 8.48605 13.2339V7.73788C8.48605 7.60449 8.5884 7.49707 8.7155 7.49707H9.56581C9.69291 7.49707 9.79526 7.60449 9.79526 7.73788V13.2339ZM15.5844 13.2198C15.5844 13.3496 15.4831 13.4559 15.3594 13.4559H14.5136C14.4934 13.4559 14.4731 13.4523 14.4529 13.4476H14.418L14.4068 13.4417H14.4L14.3865 13.4323C14.364 13.4157 14.3438 13.3945 14.328 13.3709L11.9289 9.97125V13.2682C11.9289 13.398 11.8277 13.5043 11.704 13.5043H10.8525C10.7288 13.5043 10.6276 13.398 10.6276 13.2682V7.77211C10.6276 7.64226 10.7288 7.53602 10.8525 7.53602H11.8052L11.8176 7.54311H11.8243L11.8367 7.55255H11.8434L11.8558 7.56317L11.8693 7.57734C11.8761 7.58442 11.8828 7.59269 11.8884 7.60213L14.2842 10.9982V7.73316C14.2842 7.60331 14.3854 7.49707 14.5091 7.49707H15.3594H15.3639C15.4876 7.49943 15.5866 7.60803 15.5844 7.73788V13.2198ZM20.2319 8.63736C20.2319 8.76721 20.1306 8.87345 20.0069 8.87345H17.7158V9.80008H20.0069C20.1306 9.80008 20.2319 9.90632 20.2319 10.0362V10.938C20.2319 11.0679 20.1306 11.1741 20.0069 11.1741H17.7158V12.1019H20.0069C20.1306 12.1019 20.2319 12.2082 20.2319 12.338V13.2304C20.2364 13.3603 20.1396 13.47 20.0148 13.4748C20.0125 13.4748 20.0092 13.4748 20.0069 13.4748H16.6326C16.5089 13.4748 16.4077 13.3685 16.4077 13.2387V7.74378C16.4077 7.61393 16.5089 7.50769 16.6326 7.50769H20.0069C20.1306 7.50769 20.2319 7.61393 20.2319 7.74378V8.63736Z" fill="#0050B5"/>
</svg>
