<svg width="25" height="23" viewBox="0 0 25 23" fill="none" xmlns="http://www.w3.org/2000/svg">
<g id="house" clip-path="url(#clip0_7022_13121)">
<path id="Vector" d="M12.0063 2.19693L2.71491 9.35161C2.61078 9.43187 2.5498 9.5557 2.5498 9.68703V19.4816C2.5498 20.9668 3.75425 22.1708 5.24016 22.1708H19.2894C20.7753 22.1708 21.9798 20.9668 21.9798 19.4816V9.68703C21.9798 9.5557 21.9188 9.43187 21.8147 9.35161L12.5233 2.19693C12.3709 2.07954 12.1587 2.07954 12.0063 2.19693Z" fill="#B1B1B1"/>
<path id="Vector_2" d="M15.1993 10.3022H13.5406C13.0619 10.3022 12.6738 10.6901 12.6738 11.1686V12.8266C12.6738 13.3051 13.0619 13.693 13.5406 13.693H15.1993C15.678 13.693 16.066 13.3051 16.066 12.8266V11.1686C16.066 10.6901 15.678 10.3022 15.1993 10.3022Z" fill="white"/>
<path id="Vector_3" d="M11.0333 10.3022H9.37454C8.89586 10.3022 8.50781 10.6901 8.50781 11.1686V12.8266C8.50781 13.3051 8.89586 13.693 9.37454 13.693H11.0333C11.512 13.693 11.9 13.3051 11.9 12.8266V11.1686C11.9 10.6901 11.512 10.3022 11.0333 10.3022Z" fill="white"/>
<path id="Vector_4" d="M11.0333 14.4656H9.37454C8.89586 14.4656 8.50781 14.8535 8.50781 15.3319V16.99C8.50781 17.4684 8.89586 17.8563 9.37454 17.8563H11.0333C11.512 17.8563 11.9 17.4684 11.9 16.99V15.3319C11.9 14.8535 11.512 14.4656 11.0333 14.4656Z" fill="white"/>
<path id="Vector_5" d="M15.1993 14.4656H13.5406C13.0619 14.4656 12.6738 14.8535 12.6738 15.3319V16.99C12.6738 17.4684 13.0619 17.8563 13.5406 17.8563H15.1993C15.678 17.8563 16.066 17.4684 16.066 16.99V15.3319C16.066 14.8535 15.678 14.4656 15.1993 14.4656Z" fill="white"/>
<path id="Vector_6" d="M23.722 8.58566C21.7889 7.04953 15.7768 2.31858 13.3003 0.36311C12.8908 0.0397017 12.5325 0 12.2497 0C11.9022 0 11.5159 0.115886 11.2014 0.362037C8.49815 2.47889 2.5296 7.2064 0.779399 8.58459C0.328967 8.93933 0.236648 9.44429 0.251462 9.731C0.264773 9.99132 0.328323 10.2546 0.548601 10.5364C0.830068 10.8965 1.21094 11.0184 1.42778 11.0485C1.68134 11.0869 2.09956 11.0783 2.49997 10.762C4.17546 9.43742 9.36187 5.35115 11.6802 3.52101C11.8309 3.4019 12.0376 3.32121 12.2497 3.32121C12.3947 3.32121 12.6364 3.37744 12.8213 3.52315C15.0249 5.26102 20.2012 9.346 22.0014 10.7725C22.3486 11.0476 22.7082 11.0837 23.0251 11.0551C23.3287 11.0201 23.6649 10.8858 23.9528 10.5364C24.2098 10.2246 24.25 9.85268 24.25 9.61576C24.25 9.39901 24.1523 8.92731 23.722 8.58523V8.58566Z" fill="#9A9A9A"/>
</g>
<defs>
<clipPath id="clip0_7022_13121">
<rect width="24" height="22.1707" fill="white" transform="translate(0.25)"/>
</clipPath>
</defs>
</svg>
