<svg width="24" height="23" viewBox="0 0 24 23" fill="none" xmlns="http://www.w3.org/2000/svg">
<g id="house" clip-path="url(#clip0_5789_21190)">
<path id="Vector" d="M11.7563 2.19693L2.46491 9.35161C2.36078 9.43187 2.2998 9.5557 2.2998 9.68703V19.4816C2.2998 20.9668 3.50425 22.1708 4.99016 22.1708H19.0394C20.5253 22.1708 21.7298 20.9668 21.7298 19.4816V9.68703C21.7298 9.5557 21.6688 9.43187 21.5647 9.35161L12.2733 2.19693C12.1209 2.07954 11.9087 2.07954 11.7563 2.19693Z" fill="#9DA2FF"/>
<path id="Vector_2" d="M14.9488 10.3022H13.2901C12.8114 10.3022 12.4233 10.6901 12.4233 11.1686V12.8266C12.4233 13.3051 12.8114 13.693 13.2901 13.693H14.9488C15.4275 13.693 15.8155 13.3051 15.8155 12.8266V11.1686C15.8155 10.6901 15.4275 10.3022 14.9488 10.3022Z" fill="white"/>
<path id="Vector_3" d="M10.7838 10.3022H9.12503C8.64635 10.3022 8.2583 10.6901 8.2583 11.1686V12.8266C8.2583 13.3051 8.64635 13.693 9.12503 13.693H10.7838C11.2624 13.693 11.6505 13.3051 11.6505 12.8266V11.1686C11.6505 10.6901 11.2624 10.3022 10.7838 10.3022Z" fill="white"/>
<path id="Vector_4" d="M10.7838 14.4656H9.12503C8.64635 14.4656 8.2583 14.8535 8.2583 15.3319V16.99C8.2583 17.4684 8.64635 17.8563 9.12503 17.8563H10.7838C11.2624 17.8563 11.6505 17.4684 11.6505 16.99V15.3319C11.6505 14.8535 11.2624 14.4656 10.7838 14.4656Z" fill="white"/>
<path id="Vector_5" d="M14.9488 14.4656H13.2901C12.8114 14.4656 12.4233 14.8535 12.4233 15.3319V16.99C12.4233 17.4684 12.8114 17.8563 13.2901 17.8563H14.9488C15.4275 17.8563 15.8155 17.4684 15.8155 16.99V15.3319C15.8155 14.8535 15.4275 14.4656 14.9488 14.4656Z" fill="white"/>
<path id="Vector_6" d="M23.472 8.58566C21.5389 7.04953 15.5268 2.31858 13.0503 0.36311C12.6408 0.0397017 12.2825 0 11.9997 0C11.6522 0 11.2659 0.115886 10.9514 0.362037C8.24815 2.47889 2.2796 7.2064 0.529399 8.58459C0.0789673 8.93933 -0.0133519 9.44429 0.00146208 9.731C0.0147732 9.99132 0.0783232 10.2546 0.298601 10.5364C0.580068 10.8965 0.960938 11.0184 1.17778 11.0485C1.43134 11.0869 1.84956 11.0783 2.24997 10.762C3.92546 9.43742 9.11187 5.35115 11.4302 3.52101C11.5809 3.4019 11.7876 3.32121 11.9997 3.32121C12.1447 3.32121 12.3864 3.37744 12.5713 3.52315C14.7749 5.26102 19.9512 9.346 21.7514 10.7725C22.0986 11.0476 22.4582 11.0837 22.7751 11.0551C23.0787 11.0201 23.4149 10.8858 23.7028 10.5364C23.9598 10.2246 24 9.85268 24 9.61576C24 9.39901 23.9023 8.92731 23.472 8.58523V8.58566Z" fill="#565EFF"/>
</g>
<defs>
<clipPath id="clip0_5789_21190">
<rect width="24" height="22.1707" fill="white"/>
</clipPath>
</defs>
</svg>
