<svg width="40" height="14" viewBox="0 0 40 14" fill="none" xmlns="http://www.w3.org/2000/svg">
<g id="Layer_1" clip-path="url(#clip0_7785_109575)">
<path id="Vector" d="M39.3854 0.966434C32.7146 -0.0683775 26.9607 0.584457 24.9674 1.06714C23.9708 1.30674 23.1166 1.50468 22.4013 1.66094C20.8178 2.00819 19.1787 2.00819 17.5953 1.66094C16.8799 1.50468 16.0292 1.30674 15.0291 1.06714C13.0393 0.584457 7.28535 -0.0718501 0.614637 0.966434C0.260439 1.02199 0 1.3241 0 1.68177V3.51527C0 3.8139 0.184044 4.08476 0.465318 4.18894C0.899384 4.35562 1.48624 4.74107 1.56958 5.64045C1.67723 6.81069 2.48633 12.7001 6.40681 13.4849C6.40681 13.4849 13.8588 15.1829 15.9493 11.1305C17.7758 7.58854 18.1231 4.92164 20.0017 4.7237C21.8804 4.92164 22.2276 7.59201 24.0542 11.1305C26.1446 15.1829 33.5967 13.4849 33.5967 13.4849C37.5171 12.7001 38.3262 6.81416 38.4339 5.64045C38.5138 4.74454 39.1041 4.35562 39.5382 4.18894C39.8194 4.08129 40.0035 3.8139 40.0035 3.51527V1.68177C40.0035 1.3241 39.743 1.02199 39.3888 0.966434H39.3854Z" fill="#404EED"/>
<path id="Vector_2" d="M3.5732 7.45409C3.5732 7.45409 2.22934 2.31128 6.6325 1.94666C6.6325 1.94666 14.7096 1.21396 16.1785 3.65862C17.2688 5.47475 16.1785 8.71461 14.6922 10.6349C14.0081 11.5204 13.0254 12.1177 11.9281 12.326C10.8134 12.5379 9.02506 12.7184 7.19157 12.2531C6.12898 11.9857 5.20876 11.3225 4.63232 10.3884C4.20867 9.70428 3.78503 8.73892 3.57667 7.44714L3.5732 7.45409Z" fill="#B6C0FF"/>
<path id="Vector_3" d="M36.4268 7.45409C36.4268 7.45409 37.7741 2.31475 33.3675 1.94666C33.3675 1.94666 25.2904 1.21396 23.8215 3.65862C22.7311 5.47475 23.8215 8.71461 25.3077 10.6349C25.9918 11.5204 26.9745 12.1177 28.0719 12.326C29.1865 12.5379 30.9749 12.7184 32.8084 12.2531C33.871 11.9857 34.7912 11.3225 35.3676 10.3884C35.7913 9.70428 36.2149 8.73892 36.4233 7.44714L36.4268 7.45409Z" fill="#B6C0FF"/>
<path id="Vector_4" opacity="0.5" d="M33.3675 1.94575C33.3675 1.94575 29.5998 1.60545 26.7454 2.168L23.3944 5.78984C23.4882 7.44276 24.3077 9.33876 25.3112 10.6375C25.346 10.6792 25.3807 10.7173 25.4154 10.759L33.5481 1.96659C33.489 1.95964 33.43 1.94923 33.3675 1.94575Z" fill="white"/>
<path id="Vector_5" opacity="0.5" d="M35.9858 3.32031L27.7281 12.2447C27.8427 12.276 27.9608 12.3037 28.0789 12.328C28.5754 12.4218 29.2144 12.5086 29.9228 12.5329L36.6074 5.31007C36.5588 4.63987 36.3921 3.92106 35.9893 3.32031H35.9858Z" fill="white"/>
<path id="Vector_6" opacity="0.5" d="M6.97626 1.91771L3.3822 5.80347C3.38567 6.72716 3.57666 7.45291 3.57666 7.45291C3.78502 8.74469 4.20866 9.71005 4.63231 10.3941C4.78163 10.6337 4.95178 10.856 5.14277 11.0574L13.3518 2.1851C10.9974 1.70241 7.97982 1.85173 6.97626 1.92118V1.91771Z" fill="white"/>
<path id="Vector_7" opacity="0.5" d="M16.1785 3.65801C16.116 3.55384 16.0362 3.45313 15.9494 3.35938L7.48682 12.3185C8.42787 12.5234 9.34462 12.565 10.1607 12.5303L16.6161 5.30052C16.5952 4.68935 16.4598 4.1268 16.1785 3.65801Z" fill="white"/>
<g id="Group">
<path id="Vector_8" d="M38.6978 3.04609C38.9587 3.04609 39.1701 2.83465 39.1701 2.57383C39.1701 2.313 38.9587 2.10156 38.6978 2.10156C38.437 2.10156 38.2256 2.313 38.2256 2.57383C38.2256 2.83465 38.437 3.04609 38.6978 3.04609Z" fill="white"/>
<path id="Vector_9" d="M1.35776 3.04609C1.61859 3.04609 1.83002 2.83465 1.83002 2.57383C1.83002 2.313 1.61859 2.10156 1.35776 2.10156C1.09694 2.10156 0.885498 2.313 0.885498 2.57383C0.885498 2.83465 1.09694 3.04609 1.35776 3.04609Z" fill="white"/>
</g>
</g>
<defs>
<clipPath id="clip0_7785_109575">
<rect width="40" height="13.4213" fill="white" transform="translate(0 0.414062)"/>
</clipPath>
</defs>
</svg>
