<svg width="36" height="41" viewBox="0 0 36 41" fill="none" xmlns="http://www.w3.org/2000/svg">
<g id="Layer_1" clip-path="url(#clip0_7785_109604)">
<path id="Vector" d="M12.2634 38.9991C12.2957 39.0115 12.3256 39.024 12.3555 39.0389C12.9405 39.2779 16.1815 40.5125 19.7088 40.0022C23.6045 39.4397 24.0725 39.3973 26.4746 38.3469C27.9657 37.1769 30.5072 35.4444 31.0076 33.4057C31.5701 31.1205 23.4028 36.4749 23.4028 36.4749C23.4028 36.4749 14.8199 35.5838 14.6207 35.4419C14.4216 35.3025 7.1131 28.9748 7.1131 28.9748L5.39053 27.1875L4.19568 28.3077V30.1348C4.19568 30.1348 5.77636 35.7929 9.71189 37.8316C10.8221 38.4066 11.6436 38.7377 12.2634 38.9966V38.9991Z" fill="#FFC4B8"/>
<path id="Vector_2" d="M32.4489 27.9221C34.1756 27.9221 35.5754 26.2938 35.5754 24.2853C35.5754 22.2767 34.1756 20.6484 32.4489 20.6484C30.7222 20.6484 29.3224 22.2767 29.3224 24.2853C29.3224 26.2938 30.7222 27.9221 32.4489 27.9221Z" fill="#FFC4B8"/>
<path id="Vector_3" d="M30.7612 1.67195C30.6915 1.62714 30.6243 1.58234 30.5546 1.54002C27.3061 -0.486243 23.7614 -0.028218 21.765 1.00483C19.7686 2.03787 17.934 1.5674 15.2282 2.12997C12.5223 2.69255 5.84614 3.81521 2.47319 9.47331C-0.899769 15.1314 0.680914 22.8631 1.66417 24.3392C2.64743 25.8153 4.30031 25.5689 5.63455 28.6257C6.9688 31.6825 7.14553 39.3793 19.552 39.0981C31.9585 38.8168 32.7999 31.7174 32.9418 29.4347C33.0837 27.1521 32.7302 16.7843 32.9418 14.7804C33.1534 12.7766 35.1199 8.87588 33.9599 5.50293C32.7999 2.12998 30.7612 1.67195 30.7612 1.67195Z" fill="#9F6855"/>
<path id="Vector_4" d="M6.51318 24.9713C6.51318 24.9713 8.16606 23.2487 8.12872 20.8242C8.09138 18.3996 8.2482 13.3116 9.35095 12.5673C10.4537 11.823 12.0394 12.988 16.2462 11.5467C20.4531 10.1054 21.5185 8.48987 24.8217 8.98026C28.125 9.47064 31.1121 15.8681 31.3934 18.0462C31.6747 20.2243 31.5701 24.583 30.8657 24.9688C30.1612 25.3546 28.5108 24.1946 27.0347 24.4759C25.5585 24.7572 24.0127 25.3198 22.1333 25.494C20.2539 25.6683 17.0204 25.3347 16.072 25.4243C15.1236 25.514 12.699 26.9876 12.1713 27.1469C11.6436 27.3062 9.71189 26.9876 8.72614 26.2508C7.74039 25.514 6.51318 24.9688 6.51318 24.9688V24.9713Z" fill="#FFC4B8"/>
<path id="Vector_5" d="M15.4173 20.3727L14.6207 18.8243C16.6221 17.7938 19.5545 17.7291 19.6764 17.7266L19.7088 19.469C19.6814 19.469 17.0552 19.5313 15.4173 20.3751V20.3727Z" fill="#7E5241"/>
<path id="Vector_6" d="M22.9872 19.2109L22.584 17.5157C24.7745 16.9954 27.6347 17.6352 27.7567 17.6626L27.3708 19.3627C27.3459 19.3578 24.7795 18.7877 22.9872 19.2109Z" fill="#7E5241"/>
<path id="Vector_7" d="M23.2983 23.3991L22.6984 21.3952H22.6934C22.5515 20.9621 22.1508 20.6484 21.6703 20.6484C21.0729 20.6484 20.59 21.1314 20.59 21.7288L20.575 23.8198C20.5726 23.8571 20.5701 23.8969 20.5701 23.9343C20.5701 24.7159 21.2048 25.3507 21.9865 25.3507C22.7681 25.3507 23.4029 24.7159 23.4029 23.9343C23.4029 23.7451 23.3655 23.5659 23.2983 23.3991Z" fill="#FFB1A4"/>
<path id="Vector_8" d="M3.63309 22.8203C3.63309 22.8203 0.329838 24.4458 0.715674 27.0471C1.10151 29.6484 2.82408 31.1594 5.84605 30.7362C5.84605 30.7362 5.59961 28.0652 5.10923 25.6407C4.61884 23.2161 3.63309 22.8203 3.63309 22.8203Z" fill="#FFC4B8"/>
<path id="Vector_9" d="M26.4623 26.8116C26.4025 26.0946 24.8044 26.4108 21.9841 26.6224C19.1637 26.834 17.1997 26.3411 17.1624 27.5011C17.125 28.6611 17.7747 32.2805 21.9841 32.1411C26.1934 32.0017 26.5544 27.9143 26.4623 26.8116Z" fill="#FFC4B8"/>
<path id="Vector_10" d="M21.4837 27.1927C19.3454 27.4317 18.3572 27.7155 18.392 28.3129C18.4269 28.9103 19.0965 31.0884 21.8197 30.8071C24.543 30.5258 25.5262 28.8755 25.4565 27.9246C25.3868 26.9737 22.6959 27.0558 21.4862 27.1902L21.4837 27.1927Z" fill="#A94952"/>
<path id="Vector_11" d="M25.0583 27.4292C24.2518 27.0135 22.4246 27.0857 21.4837 27.1903C19.786 27.3794 18.8127 27.5985 18.5016 27.9794C18.5016 27.9868 18.397 28.5021 19.5321 28.4498C20.6747 28.3976 24.0203 28.2233 24.6102 27.8698C24.8417 27.7304 24.9761 27.5711 25.0558 27.4292H25.0583Z" fill="#D0CFD0"/>
<path id="Vector_12" d="M21.8197 30.8034C22.9772 30.6839 23.8186 30.3155 24.4011 29.86C24.0377 29.6758 23.2436 29.6011 21.7824 29.6608C20.6821 29.7056 19.8731 29.9297 19.3479 30.1313C19.8731 30.5943 20.6597 30.9229 21.8222 30.8034H21.8197Z" fill="#D0CFD0"/>
<path id="Vector_13" d="M25.9593 22.7023C25.108 22.7023 24.3313 22.4559 23.8484 22.2069C23.5422 22.0501 23.4228 21.6742 23.5796 21.3681C23.7364 21.0619 24.1098 20.9424 24.416 21.0992C24.5031 21.144 26.5368 22.1447 27.8412 20.6163C28.0652 20.3549 28.456 20.3251 28.7174 20.5466C28.9788 20.7681 29.0087 21.1615 28.7871 21.4228C27.9632 22.3887 26.9152 22.6998 25.9593 22.6998V22.7023Z" fill="#091518"/>
<path id="Vector_14" d="M16.901 23.4367C16.0496 23.4367 15.273 23.1902 14.7901 22.9413C14.4839 22.7845 14.3644 22.4086 14.5212 22.1024C14.6781 21.7963 15.0514 21.6768 15.3576 21.8336C15.4447 21.8784 17.4785 22.8791 18.7829 21.3507C19.0069 21.0893 19.4002 21.0594 19.6591 21.281C19.9204 21.505 19.9503 21.8958 19.7288 22.1572C18.9048 23.123 17.8568 23.4342 16.901 23.4342V23.4367Z" fill="#091518"/>
</g>
<defs>
<clipPath id="clip0_7785_109604">
<rect width="35.1559" height="40" fill="white" transform="translate(0.421997 0.125)"/>
</clipPath>
</defs>
</svg>
