<svg width="40" height="22" viewBox="0 0 40 22" fill="none" xmlns="http://www.w3.org/2000/svg">
<g id="Layer_1" clip-path="url(#clip0_7785_109586)">
<path id="Vector" d="M24.7914 18.1613C25.042 18.1613 25.042 17.7734 24.7914 17.7734C24.5409 17.7734 24.5409 18.1613 24.7914 18.1613Z" fill="#6B7BF2"/>
<path id="Vector_2" d="M9.55557 15.8341L1.17733 8.79098C-0.161265 7.66862 -0.391229 5.68818 0.65219 4.28437C1.5995 3.01099 3.32252 2.59225 4.75035 3.28557L7.9012 4.81638L9.55557 15.8341ZM3.30879 4.25005C2.69097 4.25005 2.08346 4.53493 1.69561 5.06007C1.06063 5.91128 1.20136 7.11602 2.01481 7.79904L7.76391 12.6317L6.72049 5.68475L4.18402 4.45255C3.90258 4.31526 3.60397 4.25005 3.30879 4.25005Z" fill="#A0B4BD"/>
<path id="Vector_3" d="M30.4445 15.8333L32.0988 4.81565L35.2497 3.28484C36.6775 2.59152 38.4005 3.01369 39.3478 4.28364C40.3913 5.68402 40.1613 7.66445 38.8227 8.79025L30.4445 15.8333ZM33.283 5.68402L32.2396 12.631L37.9887 7.79831C38.8021 7.11529 38.9428 5.91055 38.3079 5.05934C37.7312 4.28707 36.6844 4.02965 35.8194 4.45182L33.283 5.68402Z" fill="#A0B4BD"/>
<path id="Vector_4" d="M32.9123 14.1817C29.9159 16.6392 26.3909 19.7283 22.1898 21.1904C20.8134 21.6709 19.3135 21.6881 17.9337 21.2247C13.8802 19.8656 10.2866 16.8795 7.18379 14.2366C6.89548 13.9895 6.72729 13.6291 6.72729 13.2481V5.15129C6.72729 4.5678 7.11858 4.05639 7.67804 3.90194L18.5619 0.898676C19.5435 0.627525 20.5766 0.627525 21.5583 0.898676L32.4352 3.90194C32.9981 4.05639 33.386 4.5678 33.386 5.15129V13.176C33.386 13.5639 33.2109 13.9311 32.9123 14.1782V14.1817Z" fill="#D7E0FF"/>
<g id="Group">
<path id="Vector_5" d="M11.028 9.61855H29.0887L21.5239 8.45157C20.6761 8.32114 19.8112 8.31771 18.9634 8.4447L11.028 9.61855Z" fill="white"/>
<path id="Vector_6" d="M30.1837 11.6875C27.0809 12.7275 24.1016 13.6165 21.6475 13.8704C20.6728 14.121 19.6534 14.121 18.6752 13.8773C16.2279 13.5787 13.1835 12.7309 9.93311 11.6875C16.8217 12.6245 23.5731 12.6245 30.1837 11.6875Z" fill="white"/>
<path id="Vector_7" d="M27.4791 15.3203C22.5503 17.0914 17.6043 17.0776 12.6412 15.3203C15.2052 16.8408 17.697 17.9426 19.9966 17.9666C22.5537 18.0009 25.025 16.834 27.4756 15.3203H27.4791Z" fill="white"/>
</g>
</g>
<defs>
<clipPath id="clip0_7785_109586">
<rect width="40" height="20.8649" fill="white" transform="translate(0 0.695312)"/>
</clipPath>
</defs>
</svg>
