<svg width="32" height="33" viewBox="0 0 32 33" fill="none" xmlns="http://www.w3.org/2000/svg">
<g id="Layer_1" clip-path="url(#clip0_7785_109598)">
<path id="Vector" d="M22.212 21.1548C16.835 21.1072 12.2947 16.8457 11.9308 11.4824C11.5669 6.11899 15.0427 1.84734 19.7973 0.667193C18.022 0.228464 16.1344 0.0788202 14.1822 0.289682C6.53339 1.11612 0.496612 7.44878 0.0306749 15.1316C-0.53049 24.3824 6.80546 32.0584 15.9337 32.0584C25.062 32.0584 31.864 24.9265 31.864 16.1247C31.864 15.7302 31.847 15.3459 31.8164 14.9582C30.1907 18.6347 26.5007 21.1922 22.2154 21.1548H22.212Z" fill="#6B7BED"/>
<path id="Vector_2" d="M21.5861 9.08271L22.2255 10.3785C22.3139 10.5587 22.4874 10.6846 22.6846 10.7118L24.1164 10.9193C24.6164 10.9907 24.8171 11.6063 24.4565 11.96L23.4226 12.9701C23.2798 13.1095 23.2152 13.3136 23.2458 13.5108L23.4907 14.9358C23.5757 15.4324 23.0519 15.8133 22.6064 15.5786L21.3242 14.9052C21.1474 14.8134 20.9365 14.8134 20.7563 14.9052L19.4775 15.5786C19.0285 15.8133 18.5082 15.4324 18.5932 14.9358L18.8381 13.5108C18.8721 13.3136 18.8075 13.1095 18.6612 12.9701L17.6273 11.96C17.2668 11.6063 17.4641 10.9907 17.9674 10.9193L19.3993 10.7118C19.5999 10.6846 19.77 10.5587 19.8584 10.3785L20.4944 9.08271C20.7188 8.63038 21.365 8.62698 21.5895 9.08271H21.5861Z" fill="#6B7BED"/>
<path id="Vector_3" d="M30.4525 7.2326L30.745 7.82437C30.7994 7.93661 30.9049 8.01143 31.0273 8.02843L31.6803 8.12366C31.9864 8.16787 32.1088 8.54538 31.8878 8.76305L31.415 9.22558C31.3266 9.31061 31.2858 9.43645 31.3062 9.55548L31.4184 10.2051C31.4694 10.5112 31.1497 10.7458 30.8743 10.5996L30.2893 10.2935C30.1805 10.2357 30.0512 10.2357 29.939 10.2935L29.354 10.5996C29.0785 10.7458 28.7588 10.5112 28.8099 10.2051L28.9221 9.55548C28.9425 9.43305 28.9017 9.31061 28.8133 9.22558L28.3405 8.76305C28.1195 8.54538 28.2419 8.16787 28.548 8.12366L29.201 8.02843C29.3234 8.01143 29.4288 7.9332 29.4833 7.82437L29.7757 7.2326C29.9118 6.95372 30.3097 6.95372 30.4457 7.2326H30.4525Z" fill="#6B7BED"/>
<path id="Vector_4" d="M24.5314 2.72479L24.8239 3.31656C24.8783 3.42879 24.9837 3.50362 25.1062 3.52062L25.7592 3.61585C26.0652 3.66006 26.1877 4.03757 25.9666 4.25524L25.4939 4.71777C25.4055 4.8028 25.3646 4.92863 25.385 5.04767L25.4973 5.69726C25.5483 6.00335 25.2286 6.23802 24.9531 6.09178L24.3681 5.78569C24.2593 5.72787 24.1301 5.72787 24.0178 5.78569L23.4329 6.09178C23.1574 6.23802 22.8377 6.00335 22.8887 5.69726L23.0009 5.04767C23.0214 4.92523 22.9805 4.8028 22.8921 4.71777L22.4194 4.25524C22.1983 4.03757 22.3207 3.66006 22.6268 3.61585L23.2798 3.52062C23.4023 3.50362 23.5077 3.42539 23.5621 3.31656L23.8546 2.72479C23.9906 2.4459 24.3886 2.4459 24.5246 2.72479H24.5314Z" fill="#6B7BED"/>
</g>
<defs>
<clipPath id="clip0_7785_109598">
<rect width="32" height="31.8606" fill="white" transform="translate(0 0.195312)"/>
</clipPath>
</defs>
</svg>
