<svg width="40" height="29" viewBox="0 0 40 29" fill="none" xmlns="http://www.w3.org/2000/svg">
<g id="Layer_1" clip-path="url(#clip0_7785_109562)">
<path id="Vector" d="M20 28.1091C31.0457 28.1091 40 25.0608 40 21.3006C40 17.5404 31.0457 14.4922 20 14.4922C8.9543 14.4922 0 17.5404 0 21.3006C0 25.0608 8.9543 28.1091 20 28.1091Z" fill="#FFC961"/>
<path id="Vector_2" d="M39.9965 19.7266H0V21.243H39.9965V19.7266Z" fill="#FFC961"/>
<path id="Vector_3" d="M20 26.5387C31.0457 26.5387 40 23.4905 40 19.7303C40 15.9701 31.0457 12.9219 20 12.9219C8.9543 12.9219 0 15.9701 0 19.7303C0 23.4905 8.9543 26.5387 20 26.5387Z" fill="#FFDB9C"/>
<path id="Vector_4" d="M32.1213 18.029L31.0999 12.7963C31.0999 12.7963 30.075 5.60789 28.1611 1.82891C26.2472 -1.95007 23.5768 1.62672 20.5543 3.0386C17.5318 4.45049 15.0114 1.88121 12.5955 2.07992C10.183 2.28211 9.18601 12.629 9.18252 12.6813L8.63171 17.8408L9.68802 18.3149C11.0023 18.9075 12.3584 19.3816 13.7319 19.7337C19.8048 21.3164 26.6028 20.804 32.1213 18.022V18.029Z" fill="#FFDB9C"/>
<path id="Vector_5" d="M31.3543 14.1279C31.3404 14.0791 31.3264 13.9815 31.323 13.9327C28.9733 14.7066 24.8213 15.8013 20.4392 15.8013C15.6458 15.8013 11.2253 14.5986 9.06045 13.8281C8.71184 15.4178 8.53753 16.9029 8.24121 18.4577C10.8872 19.3537 15.3704 20.5494 20.4392 20.5494C25.2362 20.5494 29.5555 19.4792 32.2782 18.6111C31.8529 17.1365 31.7169 15.6305 31.3509 14.1314L31.3543 14.1279Z" fill="#6B7BF2"/>
<path id="Vector_6" d="M16.5905 18.1976C16.8716 18.1976 17.0995 17.9698 17.0995 17.6887C17.0995 17.4076 16.8716 17.1797 16.5905 17.1797C16.3094 17.1797 16.0815 17.4076 16.0815 17.6887C16.0815 17.9698 16.3094 18.1976 16.5905 18.1976Z" fill="white"/>
<path id="Vector_7" d="M12.829 17.6898C13.1101 17.6898 13.338 17.462 13.338 17.1809C13.338 16.8998 13.1101 16.6719 12.829 16.6719C12.5479 16.6719 12.3201 16.8998 12.3201 17.1809C12.3201 17.462 12.5479 17.6898 12.829 17.6898Z" fill="white"/>
<path id="Vector_8" d="M27.6974 14.9255C28.7258 14.7198 29.7124 14.1306 30.6676 13.2033C31.7971 12.1087 33.6064 12.1784 34.6174 13.3951C35.4575 14.4061 35.4401 15.8772 34.5825 16.8673C33.5715 18.0316 32.4002 18.7498 31.0441 18.9659L27.6974 14.9255Z" fill="#A6B5FF"/>
<path id="Vector_9" d="M27.6974 14.9219L21.2445 15.7864L21.886 20.4892C21.886 20.4892 27.7148 20.1197 31.0441 18.9623C34.3733 17.8049 29.8204 15.6958 29.8204 15.6958L27.6939 14.9219H27.6974Z" fill="#A6B5FF"/>
<path id="Vector_10" d="M23.27 21.2259C22.0603 21.2259 21.0075 20.3299 20.8402 19.1028L20.638 17.6073C20.5508 16.9588 20.7182 16.3139 21.1156 15.791C21.513 15.2681 22.0882 14.9334 22.7366 14.8462L25.4419 14.4767C25.8289 14.4174 26.1914 14.6963 26.2437 15.0868C26.296 15.4772 26.0241 15.8363 25.6336 15.8886L22.9284 16.2581C22.6565 16.2965 22.4124 16.4359 22.2486 16.6555C22.0813 16.8752 22.0115 17.1471 22.0464 17.419L22.2486 18.9146C22.3253 19.4758 22.8447 19.8732 23.4095 19.7966L26.1147 19.427C26.5052 19.3678 26.8642 19.6466 26.9165 20.0371C26.9688 20.4275 26.6969 20.7831 26.3065 20.8389L23.6012 21.2084C23.4897 21.2224 23.3781 21.2328 23.27 21.2328V21.2259Z" fill="white"/>
<path id="Vector_11" d="M23.7476 17.9844L20.2615 18.3504" stroke="white" stroke-width="2.72" stroke-linecap="round" stroke-linejoin="round"/>
<path id="Vector_12" d="M9.09191 13.5233C9.09191 13.5233 8.53761 13.4397 8.41908 13.8232L7.60681 18.2784L8.24129 18.4493L9.25227 17.773L9.06053 13.8197L9.09191 13.5199V13.5233Z" fill="#6B7BF2"/>
</g>
<defs>
<clipPath id="clip0_7785_109562">
<rect width="40" height="27.9589" fill="white" transform="translate(0 0.148438)"/>
</clipPath>
</defs>
</svg>
