<svg width="24" height="24" viewBox="0 0 24 24" fill="none" xmlns="http://www.w3.org/2000/svg">
<g id="Layer_1" clip-path="url(#clip0_7571_108381)">
<path id="Vector" d="M22 0H12C10.8954 0 10 0.89543 10 2V18C10 19.1046 10.8954 20 12 20H22C23.1046 20 24 19.1046 24 18V2C24 0.89543 23.1046 0 22 0Z" fill="#A0A0A0"/>
<path id="Vector_2" d="M15 4H5C3.89543 4 3 4.89543 3 6V22C3 23.1046 3.89543 24 5 24H15C16.1046 24 17 23.1046 17 22V6C17 4.89543 16.1046 4 15 4Z" fill="#C3C3C3"/>
<path id="Vector_3" d="M13 22V21.24C13 20.14 12.1 19.24 11 19.24H2C0.9 19.24 0 20.14 0 21.24V22C0 23.1 0.9 24 2 24H15C13.9 24 13 23.1 13 22Z" fill="#DDDDDD"/>
<path id="Vector_4" d="M13.8799 6.19995H5.87988C5.3276 6.19995 4.87988 6.64767 4.87988 7.19995C4.87988 7.75224 5.3276 8.19995 5.87988 8.19995H13.8799C14.4322 8.19995 14.8799 7.75224 14.8799 7.19995C14.8799 6.64767 14.4322 6.19995 13.8799 6.19995Z" fill="#A0A0A0"/>
<path id="Vector_5" d="M14.3799 10.2H5.37988C5.10374 10.2 4.87988 10.4238 4.87988 10.7C4.87988 10.9761 5.10374 11.2 5.37988 11.2H14.3799C14.656 11.2 14.8799 10.9761 14.8799 10.7C14.8799 10.4238 14.656 10.2 14.3799 10.2Z" fill="#A0A0A0"/>
<path id="Vector_6" d="M14.3799 12.2H5.37988C5.10374 12.2 4.87988 12.4238 4.87988 12.7C4.87988 12.9761 5.10374 13.2 5.37988 13.2H14.3799C14.656 13.2 14.8799 12.9761 14.8799 12.7C14.8799 12.4238 14.656 12.2 14.3799 12.2Z" fill="#A0A0A0"/>
<path id="Vector_7" d="M14.3799 14.2H5.37988C5.10374 14.2 4.87988 14.4238 4.87988 14.7C4.87988 14.9761 5.10374 15.2 5.37988 15.2H14.3799C14.656 15.2 14.8799 14.9761 14.8799 14.7C14.8799 14.4238 14.656 14.2 14.3799 14.2Z" fill="#A0A0A0"/>
<path id="Vector_8" d="M14.3799 16.2H5.37988C5.10374 16.2 4.87988 16.4238 4.87988 16.7C4.87988 16.9761 5.10374 17.2 5.37988 17.2H14.3799C14.656 17.2 14.8799 16.9761 14.8799 16.7C14.8799 16.4238 14.656 16.2 14.3799 16.2Z" fill="#A0A0A0"/>
</g>
<defs>
<clipPath id="clip0_7571_108381">
<rect width="24" height="24" fill="white"/>
</clipPath>
</defs>
</svg>
