<svg width="229" height="76" viewBox="0 0 229 76" fill="none" xmlns="http://www.w3.org/2000/svg">
<g id="Asset 2" clip-path="url(#clip0_5960_12523)">
<g id="Layer_1-2">
<path id="Vector" d="M105.35 74.35C86.3897 74.35 70.9697 58.93 70.9697 39.97C70.9697 21.01 86.3897 5.58997 105.35 5.58997C124.31 5.58997 139.73 21.01 139.73 39.97C139.73 58.93 124.31 74.35 105.35 74.35ZM105.35 8.59997C88.0497 8.59997 73.9697 22.68 73.9697 39.98C73.9697 57.28 88.0497 71.36 105.35 71.36C122.65 71.36 136.73 57.28 136.73 39.98C136.73 22.68 122.65 8.59997 105.35 8.59997Z" fill="white"/>
<path id="Vector_2" d="M170.01 75.28L154.79 64.6L164.13 51.29C162.63 50.65 161.2 49.86 159.87 48.92C154.74 45.32 151.32 39.95 150.24 33.78C149.16 27.61 150.54 21.39 154.14 16.26C157.74 11.13 163.11 7.70998 169.28 6.62998C175.45 5.54998 181.67 6.92998 186.8 10.53C191.93 14.13 195.35 19.5 196.43 25.67C197.51 31.84 196.13 38.06 192.53 43.19L170.02 75.28H170.01ZM158.97 63.87L169.28 71.1L190.06 41.46C193.2 36.99 194.4 31.56 193.46 26.19C192.52 20.81 189.53 16.12 185.06 12.99C180.59 9.85998 175.16 8.64998 169.79 9.58998C164.41 10.53 159.72 13.52 156.59 17.99C153.46 22.46 152.25 27.89 153.19 33.26C154.13 38.64 157.12 43.33 161.59 46.46C163.23 47.61 165.03 48.51 166.94 49.14L168.86 49.77L158.98 63.86L158.97 63.87Z" fill="white"/>
<path id="Vector_3" d="M62.7205 74.35H35.4805V5.47998H62.7205V74.35ZM38.4805 71.35H59.7205V8.47998H38.4805V71.35Z" fill="white"/>
<path id="Vector_4" d="M27.24 74.35H0V5.47998H27.24V74.35ZM3 71.35H24.24V8.47998H3V71.35Z" fill="white"/>
<path id="Vector_5" d="M204.919 0.00740284L202.798 2.12872L226.033 25.3643L228.155 23.2429L204.919 0.00740284Z" fill="white"/>
<path id="Vector_6" d="M226.033 0.00739106L202.798 23.2429L204.919 25.3642L228.155 2.12871L226.033 0.00739106Z" fill="white"/>
</g>
</g>
<defs>
<clipPath id="clip0_5960_12523">
<rect width="228.15" height="75.28" fill="white"/>
</clipPath>
</defs>
</svg>
