<svg width="558" height="833" viewBox="0 0 558 833" fill="none" xmlns="http://www.w3.org/2000/svg">
<g clip-path="url(#clip0_7149_196425)">
<path d="M126.25 809.07V828.38C126.25 830.8 124.29 832.75 121.88 832.75H18.6C16.18 832.75 14.23 830.79 14.23 828.38V809.07C14.23 806.65 16.19 804.7 18.6 804.7H51.84C54.26 804.7 56.21 802.74 56.21 800.33V725.29C56.21 722.87 54.25 720.92 51.84 720.92H32.53C30.11 720.92 28.16 718.96 28.16 716.55V697.24C28.16 694.82 30.12 692.87 32.53 692.87H79.89C82.31 692.87 84.26 694.83 84.26 697.24V800.33C84.26 802.75 86.22 804.7 88.63 804.7H121.87C124.29 804.7 126.24 806.66 126.24 809.07H126.25Z" fill="white"/>
<path d="M263.86 809.07V828.38C263.86 830.8 261.9 832.75 259.49 832.75H156.21C153.79 832.75 151.84 830.79 151.84 828.38V809.07C151.84 806.65 153.8 804.7 156.21 804.7H189.45C191.87 804.7 193.82 802.74 193.82 800.33V725.29C193.82 722.87 191.86 720.92 189.45 720.92H170.14C167.72 720.92 165.77 718.96 165.77 716.55V697.24C165.77 694.82 167.73 692.87 170.14 692.87H217.5C219.92 692.87 221.87 694.83 221.87 697.24V800.33C221.87 802.75 223.83 804.7 226.24 804.7H259.48C261.9 804.7 263.85 806.66 263.85 809.07H263.86Z" fill="white"/>
<path d="M403.75 697.23V828.38C403.75 830.8 401.79 832.75 399.38 832.75H296.1C293.68 832.75 291.73 830.79 291.73 828.38V697.23C291.73 694.81 293.69 692.86 296.1 692.86H399.38C401.8 692.86 403.75 694.82 403.75 697.23ZM371.32 720.91H324.15C321.73 720.91 319.78 722.87 319.78 725.28V800.32C319.78 802.74 321.74 804.69 324.15 804.69H371.32C373.74 804.69 375.69 802.73 375.69 800.32V725.28C375.69 722.86 373.73 720.91 371.32 720.91Z" fill="white"/>
<path d="M543.64 697.23V828.38C543.64 830.8 541.68 832.75 539.27 832.75H519.96C517.54 832.75 515.59 830.79 515.59 828.38V781.21C515.59 778.79 513.63 776.84 511.22 776.84H435.99C433.57 776.84 431.62 774.88 431.62 772.47V697.24C431.62 694.82 433.58 692.87 435.99 692.87H539.27C541.69 692.87 543.64 694.83 543.64 697.24V697.23ZM515.59 744.4V725.28C515.59 722.86 513.63 720.91 511.22 720.91H464.05C461.63 720.91 459.68 722.87 459.68 725.28V744.4C459.68 746.82 461.64 748.77 464.05 748.77H511.22C513.64 748.77 515.59 746.81 515.59 744.4Z" fill="white"/>
<path d="M490.97 102.1L346.38 18.1599C304.68 -6.05006 253.19 -6.05006 211.49 18.1599L66.89 102.1C25.48 126.14 0 170.4 0 218.28V386.04C0 433.92 25.48 478.18 66.89 502.22L211.49 586.16C253.19 610.37 304.68 610.37 346.38 586.16L490.98 502.22C532.39 478.18 557.87 433.92 557.87 386.04V218.28C557.87 170.4 532.39 126.14 490.98 102.1H490.97ZM440.44 352.88L397.31 378.43C387.35 384.33 374.98 384.38 364.97 378.57L297.02 339.13C287.19 333.42 275.07 333.37 265.19 338.98L194.8 378.93C184.92 384.54 172.8 384.48 162.97 378.78L120.36 354.04C99.14 341.72 99.14 311.07 120.36 298.75L190.41 258.08L119.88 217.13C98.76 204.87 98.63 174.42 119.64 161.98L162.77 136.43C172.73 130.53 185.1 130.48 195.11 136.29L263.06 175.73C272.89 181.44 285.01 181.49 294.89 175.88L365.28 135.93C375.16 130.32 387.28 130.38 397.11 136.08L439.72 160.82C460.94 173.14 460.94 203.79 439.72 216.11L369.67 256.78L440.2 297.73C461.32 309.99 461.45 340.44 440.44 352.88Z" fill="white"/>
</g>
<defs>
<clipPath id="clip0_7149_196425">
<rect width="557.86" height="832.75" fill="white"/>
</clipPath>
</defs>
</svg>
