<svg width="800" height="246" viewBox="0 0 800 246" fill="none" xmlns="http://www.w3.org/2000/svg">
<g clip-path="url(#clip0_7149_196429)">
<path d="M113.84 169.75V189.37C113.84 191.82 111.85 193.81 109.4 193.81H4.44C1.99 193.81 0 191.82 0 189.37V169.75C0 167.3 1.99 165.31 4.44 165.31H38.22C40.67 165.31 42.66 163.32 42.66 160.87V84.61C42.66 82.16 40.67 80.17 38.22 80.17H18.6C16.15 80.17 14.16 78.18 14.16 75.73V56.11C14.16 53.66 16.15 51.67 18.6 51.67H66.73C69.18 51.67 71.17 53.66 71.17 56.11V160.87C71.17 163.32 73.16 165.31 75.61 165.31H109.39C111.84 165.31 113.83 167.3 113.83 169.75H113.84Z" fill="white"/>
<path d="M253.67 169.75V189.37C253.67 191.82 251.68 193.81 249.23 193.81H144.28C141.83 193.81 139.84 191.82 139.84 189.37V169.75C139.84 167.3 141.83 165.31 144.28 165.31H178.06C180.51 165.31 182.5 163.32 182.5 160.87V84.61C182.5 82.16 180.51 80.17 178.06 80.17H158.44C155.99 80.17 154 78.18 154 75.73V56.11C154 53.66 155.99 51.67 158.44 51.67H206.57C209.02 51.67 211.01 53.66 211.01 56.11V160.87C211.01 163.32 213 165.31 215.45 165.31H249.23C251.68 165.31 253.67 167.3 253.67 169.75Z" fill="white"/>
<path d="M395.83 56.1V189.37C395.83 191.82 393.84 193.81 391.39 193.81H286.44C283.99 193.81 282 191.82 282 189.37V56.1C282 53.65 283.99 51.66 286.44 51.66H391.39C393.84 51.66 395.83 53.65 395.83 56.1ZM362.88 80.17H314.94C312.49 80.17 310.5 82.16 310.5 84.61V160.86C310.5 163.31 312.49 165.3 314.94 165.3H362.88C365.33 165.3 367.32 163.31 367.32 160.86V84.61C367.32 82.16 365.33 80.17 362.88 80.17Z" fill="white"/>
<path d="M537.99 56.1V189.37C537.99 191.82 536 193.81 533.55 193.81H513.93C511.48 193.81 509.49 191.82 509.49 189.37V141.43C509.49 138.98 507.5 136.99 505.05 136.99H428.6C426.15 136.99 424.16 135 424.16 132.55V56.1C424.16 53.65 426.15 51.66 428.6 51.66H533.55C536 51.66 537.99 53.65 537.99 56.1ZM509.48 104.04V84.61C509.48 82.16 507.49 80.17 505.04 80.17H457.1C454.65 80.17 452.66 82.16 452.66 84.61V104.04C452.66 106.49 454.65 108.48 457.1 108.48H505.04C507.49 108.48 509.48 106.49 509.48 104.04Z" fill="white"/>
<path d="M772.83 41.47L714.09 7.37C697.15 -2.46 676.24 -2.46 659.3 7.37L600.57 41.47C583.75 51.23 573.4 69.21 573.4 88.66V156.81C573.4 176.26 583.75 194.24 600.57 204L659.3 238.1C676.24 247.93 697.15 247.93 714.09 238.1L772.82 204C789.64 194.24 799.99 176.26 799.99 156.81V88.67C799.99 69.22 789.64 51.24 772.82 41.48L772.83 41.47ZM752.3 143.34L734.78 153.72C730.73 156.12 725.71 156.14 721.64 153.78L694.04 137.76C690.05 135.44 685.13 135.42 681.11 137.7L652.52 153.93C648.51 156.21 643.58 156.18 639.59 153.87L622.28 143.82C613.66 138.82 613.66 126.36 622.28 121.36L650.74 104.84L622.09 88.21C613.51 83.23 613.46 70.86 621.99 65.81L639.51 55.43C643.56 53.03 648.58 53.01 652.65 55.37L680.25 71.39C684.24 73.71 689.16 73.73 693.18 71.45L721.77 55.22C725.78 52.94 730.71 52.97 734.7 55.28L752.01 65.33C760.63 70.33 760.63 82.79 752.01 87.79L723.55 104.31L752.2 120.94C760.78 125.92 760.83 138.29 752.3 143.34Z" fill="white"/>
</g>
<defs>
<clipPath id="clip0_7149_196429">
<rect width="800" height="245.48" fill="white"/>
</clipPath>
</defs>
</svg>
