<svg width="166" height="55" viewBox="0 0 166 55" fill="none" xmlns="http://www.w3.org/2000/svg">
<g clip-path="url(#clip0_5960_12554)">
<path d="M17.9004 14.36H25.5004V2.82001H23.0404L17.9004 14.36Z" fill="#E6E7E8"/>
<path d="M164.46 4.58L160.71 0.829998C159.6 -0.280002 157.8 -0.280002 156.69 0.829998L152.94 4.58C151.83 5.69 150.03 5.69 148.92 4.58L145.17 0.829998C144.06 -0.280002 142.26 -0.280002 141.15 0.829998L137.4 4.58C136.29 5.69 136.29 7.49 137.4 8.6L141.15 12.35C142.26 13.46 142.26 15.26 141.15 16.37L137.4 20.12C136.29 21.23 136.29 23.03 137.4 24.14L141.15 27.89C142.26 29 144.06 29 145.17 27.89L148.92 24.14C150.03 23.03 151.83 23.03 152.94 24.14L156.69 27.89C157.8 29 159.6 29 160.71 27.89L164.46 24.14C165.57 23.03 165.57 21.23 164.46 20.12L160.71 16.37C159.6 15.26 159.6 13.46 160.71 12.35L164.46 8.6C165.57 7.49 165.57 5.69 164.46 4.58ZM145.88 12.35L148.92 9.31C150.03 8.2 151.83 8.2 152.94 9.31L155.98 12.35C157.09 13.46 157.09 15.26 155.98 16.37L152.94 19.41C151.83 20.52 150.03 20.52 148.92 19.41L145.88 16.37C144.77 15.26 144.77 13.46 145.88 12.35Z" fill="white"/>
<path d="M130.43 20.85H121.66V54.62H130.43V20.85Z" fill="white"/>
<path d="M33.79 2.82001H23.04V54.62H33.79V2.82001Z" fill="white"/>
<path d="M0 14.36H7.6V2.82001H5.13L0 14.36Z" fill="#E6E7E8"/>
<path d="M15.8799 2.82001H5.12988V54.62H15.8799V2.82001Z" fill="white"/>
<path d="M65.6305 12.82C74.4005 12.82 81.5305 19.95 81.5305 28.72C81.5305 37.49 74.4005 44.62 65.6305 44.62C56.8605 44.62 49.7305 37.49 49.7305 28.72C49.7305 19.95 56.8605 12.82 65.6305 12.82ZM65.6305 2.82001C51.3305 2.82001 39.7305 14.42 39.7305 28.72C39.7305 43.02 51.3305 54.62 65.6305 54.62C79.9305 54.62 91.5305 43.02 91.5305 28.72C91.5305 14.42 79.9305 2.82001 65.6305 2.82001Z" fill="white"/>
<path d="M112.41 12.82C116.84 12.82 120.44 16.42 120.44 20.85C120.44 25.28 116.84 28.88 112.41 28.88C107.98 28.88 104.38 25.28 104.38 20.85C104.38 16.42 107.98 12.82 112.41 12.82ZM112.41 2.82001C102.45 2.82001 94.3799 10.89 94.3799 20.85C94.3799 30.81 102.45 38.88 112.41 38.88C122.37 38.88 130.44 30.81 130.44 20.85C130.44 10.89 122.36 2.82001 112.41 2.82001Z" fill="white"/>
</g>
<defs>
<clipPath id="clip0_5960_12554">
<rect width="165.3" height="54.62" fill="white"/>
</clipPath>
</defs>
</svg>
