<svg width="25" height="24" viewBox="0 0 25 24" fill="none" xmlns="http://www.w3.org/2000/svg">
<g clip-path="url(#clip0_7512_23996)">
<path d="M24.3828 8H12.3828V0H20.0028C20.8328 0 21.5828 0.52 21.8728 1.3L24.3828 8Z" fill="#848AFF"/>
<path d="M2.38281 8V22C2.38281 23.1 3.28281 24 4.38281 24H9.38281V14H15.3828V24H20.3828C21.4828 24 22.3828 23.1 22.3828 22V8H2.38281Z" fill="#848AFF"/>
<path d="M0.382812 8H4.38281V9C4.38281 10.1 3.48281 11 2.38281 11C1.28281 11 0.382812 10.11 0.382812 9V8Z" fill="#565EFF"/>
<path d="M4.38281 8H8.38281V9C8.38281 10.1 7.48281 11 6.38281 11C5.28281 11 4.38281 10.1 4.38281 9V8Z" fill="#6F76FF"/>
<path d="M8.38281 8H12.3828V9C12.3828 10.1 11.4828 11 10.3828 11C9.28281 11 8.38281 10.1 8.38281 9V8Z" fill="#565EFF"/>
<path d="M12.3828 8H16.3828V9C16.3828 10.1 15.4828 11 14.3828 11C13.2828 11 12.3828 10.1 12.3828 9V8Z" fill="#6F76FF"/>
<path d="M16.3828 8H20.3828V9C20.3828 10.1 19.4828 11 18.3828 11C17.2828 11 16.3828 10.1 16.3828 9V8Z" fill="#565EFF"/>
<path d="M20.3828 8H24.3828V9C24.3828 10.1 23.4828 11 22.3828 11C21.2828 11 20.3828 10.1 20.3828 9V8Z" fill="#6F76FF"/>
<path d="M12.3828 0V8H0.382812L2.90281 1.3C3.19281 0.52 3.94281 0 4.77281 0H12.3828Z" fill="#6F76FF"/>
<path d="M12.3828 0H9.38281L8.38281 8H12.3828V0Z" fill="#6F76FF"/>
<path d="M15.3828 0H12.3828V8H16.3828L15.3828 0Z" fill="#848AFF"/>
<path d="M9.38281 0H6.38281L4.38281 8H8.38281L9.38281 0Z" fill="#848AFF"/>
<path d="M15.3828 0H18.3828L20.3828 8H16.3828L15.3828 0Z" fill="#6F76FF"/>
</g>
<defs>
<clipPath id="clip0_7512_23996">
<rect width="24" height="24" fill="white" transform="translate(0.382812)"/>
</clipPath>
</defs>
</svg>
