<svg width="40" height="40" viewBox="0 0 40 40" fill="none" xmlns="http://www.w3.org/2000/svg">
<g clip-path="url(#clip0_5796_85068)">
<g clip-path="url(#clip1_5796_85068)">
<path d="M38.3339 19.9999C38.3339 29.9972 30.2306 38.1005 20.2333 38.1005C10.2361 38.1005 2.13281 29.9972 2.13281 19.9999C2.13281 14.7347 4.37663 9.99717 7.96453 6.69253C11.1914 3.72113 15.4958 1.89941 20.2333 1.89941C30.2306 1.89941 38.3339 10.0027 38.3339 19.9999Z" fill="#9AD5F5"/>
<path d="M20.2334 0.233154C18.0451 0.233154 15.8902 0.588611 13.8407 1.29397C12.9688 1.59389 12.5078 2.53807 12.8021 3.41005C13.1021 4.28203 14.0462 4.74857 14.9182 4.44865C16.6233 3.86548 18.4117 3.57112 20.2334 3.57112C29.292 3.57112 36.6677 10.9413 36.6677 20.0054C36.6677 29.0696 29.2976 36.4398 20.2334 36.4398C11.1693 36.4398 3.7991 29.0585 3.7991 19.9999C3.7991 18.5447 3.98793 17.1118 4.36005 15.7233L5.1876 16.1676C5.75966 16.4731 6.45391 16.0454 6.4317 15.3956L6.25952 10.0526C6.23731 9.38617 5.50418 8.99739 4.93767 9.34729L0.40004 12.1632C-0.155361 12.5075 -0.127591 13.3184 0.444472 13.6294L1.36088 14.1182C0.772159 16.0177 0.466688 17.9893 0.466688 19.9999C0.466688 30.8969 9.33089 39.7666 20.2334 39.7666C31.1359 39.7666 40.0001 30.9024 40.0001 19.9999C40.0001 9.09736 31.1359 0.233154 20.2334 0.233154Z" fill="#367CFF"/>
<path d="M20.2329 9.76391C21.2482 9.76391 22.0713 8.94085 22.0713 7.92554C22.0713 6.91023 21.2482 6.08716 20.2329 6.08716C19.2176 6.08716 18.3945 6.91023 18.3945 7.92554C18.3945 8.94085 19.2176 9.76391 20.2329 9.76391Z" fill="#429ED0"/>
<path d="M20.2329 33.5461C21.2482 33.5461 22.0713 32.7231 22.0713 31.7078C22.0713 30.6925 21.2482 29.8694 20.2329 29.8694C19.2176 29.8694 18.3945 30.6925 18.3945 31.7078C18.3945 32.7231 19.2176 33.5461 20.2329 33.5461Z" fill="#429ED0"/>
<path d="M32.1304 21.655C33.1457 21.655 33.9687 20.832 33.9687 19.8166C33.9687 18.8013 33.1457 17.9783 32.1304 17.9783C31.1151 17.9783 30.292 18.8013 30.292 19.8166C30.292 20.832 31.1151 21.655 32.1304 21.655Z" fill="#429ED0"/>
<path d="M8.34228 21.655C9.35759 21.655 10.1807 20.832 10.1807 19.8166C10.1807 18.8013 9.35759 17.9783 8.34228 17.9783C7.32698 17.9783 6.50391 18.8013 6.50391 19.8166C6.50391 20.832 7.32698 21.655 8.34228 21.655Z" fill="#429ED0"/>
<path d="M27.4423 28.3143C27.159 28.3143 26.8758 28.2032 26.6592 27.9866L19.4556 20.783C19.2446 20.572 19.1279 20.2943 19.1279 19.9999V12.5297C19.1279 11.9188 19.6278 11.4189 20.2387 11.4189C20.8497 11.4189 21.3495 11.9188 21.3495 12.5297V19.5389L28.231 26.4203C28.6642 26.8535 28.6642 27.5589 28.231 27.9921C28.0144 28.2087 27.7311 28.3198 27.4478 28.3198L27.4423 28.3143Z" fill="#1957B4"/>
<path d="M20.2336 23.1047C21.9483 23.1047 23.3383 21.7146 23.3383 20C23.3383 18.2853 21.9483 16.8953 20.2336 16.8953C18.5189 16.8953 17.1289 18.2853 17.1289 20C17.1289 21.7146 18.5189 23.1047 20.2336 23.1047Z" fill="#F0C852"/>
</g>
</g>
<defs>
<clipPath id="clip0_5796_85068">
<rect width="40" height="40" fill="white"/>
</clipPath>
<clipPath id="clip1_5796_85068">
<rect width="40" height="39.5335" fill="white" transform="translate(0 0.233154)"/>
</clipPath>
</defs>
</svg>
