<svg width="40" height="40" viewBox="0 0 40 40" fill="none" xmlns="http://www.w3.org/2000/svg">
<g clip-path="url(#clip0_5796_85057)">
<path d="M39.2579 22.5779L37.3785 20.2765L37.3676 20.2737C37.2708 20.1562 37.1877 20.0306 37.0664 19.9183C35.0375 17.9714 32.2646 17.0231 29.4737 17.3075L19.3753 18.3502C18.4948 18.4463 17.7539 19.0757 17.5325 19.932C17.2382 21.07 17.9213 22.2296 19.0593 22.5238L28.1095 24.864C28.4889 24.9621 28.8714 25.0032 29.2571 24.9873L34.5369 24.8262C34.6891 24.8192 34.844 24.8015 35.0017 24.7729L37.5119 25.6186L39.2363 22.5723L39.2579 22.5779Z" fill="#E89369"/>
<path d="M29.734 20.3246L21.8638 24.3213C20.5652 24.9818 19.0762 25.1833 17.6433 24.9034L11.7547 23.7503L2.73143 21.9927C1.6791 21.7912 0.615564 22.3397 0.190151 23.3249C-0.302432 24.4444 0.178956 25.7654 1.27607 26.314L11.7547 31.4861L19.1994 34.9118C22.4348 36.3895 26.1963 36.1321 29.1966 34.2177L37.7496 28.7545C39.149 27.8589 39.9998 26.314 39.9998 24.6459C39.9998 21.9367 37.7944 19.7537 35.0964 19.776L31.9058 19.7984C31.1557 19.7984 30.4057 19.9888 29.734 20.3246Z" fill="#FFB288"/>
<circle cx="17.5" cy="13.4998" r="9.5" fill="#FFD964"/>
<circle cx="17.4996" cy="13.4994" r="6.14706" fill="#E99F31"/>
</g>
<defs>
<clipPath id="clip0_5796_85057">
<rect width="40" height="31.7045" fill="white" transform="translate(0 4.14771)"/>
</clipPath>
</defs>
</svg>
