<svg width="40" height="40" viewBox="0 0 40 40" fill="none" xmlns="http://www.w3.org/2000/svg">
<path d="M39.1577 27.6382L37.8681 26.0591L37.8607 26.0572C37.7943 25.9765 37.7372 25.8904 37.654 25.8133C36.2619 24.4775 34.3594 23.8269 32.4445 24.022L25.5157 24.7374C24.9115 24.8034 24.4031 25.2352 24.2512 25.8227C24.0493 26.6036 24.518 27.3991 25.2988 27.601L31.5085 29.2067C31.7687 29.274 32.0312 29.3022 32.2958 29.2913L35.9185 29.1807C36.0228 29.176 36.1291 29.1638 36.2374 29.1442L37.9597 29.7244L39.1428 27.6343L39.1577 27.6382Z" fill="#E89369"/>
<path d="M32.6225 26.0918L27.2226 28.834C26.3316 29.2872 25.31 29.4255 24.3268 29.2335L20.2865 28.4423L14.0954 27.2363C13.3733 27.0981 12.6436 27.4745 12.3517 28.1504C12.0137 28.9185 12.344 29.8249 13.0968 30.2013L20.2865 33.75L25.3945 36.1005C27.6144 37.1144 30.1953 36.9378 32.2538 35.6243L38.1223 31.8758C39.0825 31.2613 39.6663 30.2013 39.6663 29.0568C39.6663 27.1979 38.1531 25.7001 36.3019 25.7154L34.1127 25.7308C33.5981 25.7308 33.0834 25.8614 32.6225 26.0918Z" fill="#FFB288"/>
<path d="M2.17871 8.62614L7.44964 5.2685C11.1355 2.9144 15.7687 2.59552 19.736 4.4244L21.5555 5.25912C23.0092 5.92502 23.9471 7.38813 23.9471 8.99192V12.0963C23.9471 14.366 22.1088 16.1949 19.8485 16.1949H2.81648C1.41902 16.1949 0.28418 15.06 0.28418 13.6626V12.0869C0.28418 10.6895 0.996974 9.38583 2.17871 8.62614Z" fill="#FFB288"/>
<path d="M25.6078 7.10742H8.72587C7.68991 7.10742 6.8501 7.94723 6.8501 8.9832V18.3621C6.8501 19.398 7.68991 20.2378 8.72587 20.2378H25.6078C26.6438 20.2378 27.4836 19.398 27.4836 18.3621V8.9832C27.4836 7.94723 26.6438 7.10742 25.6078 7.10742Z" fill="#4D996B"/>
<path d="M8.72549 16.5052C9.75716 16.5052 10.6013 17.3493 10.6013 18.3809V19.3001H23.7317V18.3809C23.7317 17.3493 24.5758 16.5052 25.6075 16.5052H26.5454V10.8591H25.6075C24.5758 10.8591 23.7317 10.015 23.7317 8.9833V8.04541H10.6013V8.9833C10.6013 10.015 9.75716 10.8591 8.72549 10.8591H7.7876V16.5052H8.72549ZM17.1665 9.92119C19.2392 9.92119 20.918 11.6 20.918 13.6727C20.918 15.7455 19.2392 17.4243 17.1665 17.4243C15.0937 17.4243 13.4149 15.7455 13.4149 13.6727C13.4149 11.6 15.0937 9.92119 17.1665 9.92119Z" fill="#5FB381"/>
<path opacity="0.5" d="M15.6944 13.2788L6.8501 18.3622V16.1863L15.6944 13.2788Z" fill="#004C1B"/>
<path d="M7.05573 9.71387H15.3842C16.369 9.71387 17.1662 10.5111 17.1662 11.4959C17.1662 12.2368 16.7066 12.9121 16.0032 13.1653L8.03113 16.129C5.8271 16.945 3.37921 16.7574 1.32524 15.6038C0.678093 15.2474 0.28418 14.5721 0.28418 13.8312V11.6928L7.05573 9.71387Z" fill="#FFB288"/>
<circle cx="26" cy="21" r="5" fill="#FFD964"/>
<circle cx="26.0004" cy="21.0004" r="3.23529" fill="#E99F31"/>
</svg>
