<svg width="33" height="33" viewBox="0 0 33 33" fill="none" xmlns="http://www.w3.org/2000/svg">
<g id="Frame">
<g id="Group 48">
<path id="Vector" d="M28.2181 13.4989C28.2181 6.7189 22.5881 1.2489 15.7481 1.5089C9.50807 1.7489 4.36807 6.9589 4.21807 13.2089C4.12807 17.1389 5.92807 20.6489 8.76807 22.8989C9.68807 23.6289 10.1881 24.7789 10.1881 25.9589V27.3789C10.1881 29.5889 11.9781 31.3789 14.1881 31.3789H18.2381C20.4481 31.3789 22.2381 29.5889 22.2381 27.3789V26.0389C22.2381 24.8189 22.7381 23.6289 23.6981 22.8689C26.4481 20.6689 28.2181 17.2989 28.2181 13.4989V13.4989Z" stroke="#565EFF" stroke-width="2" stroke-linecap="round" stroke-linejoin="round"/>
<path id="Vector_2" d="M10.1982 27.375H22.2382" stroke="#565EFF" stroke-width="2" stroke-linecap="round" stroke-linejoin="round"/>
<path id="Vector_3" d="M13.8582 27.3806V9.90062C13.8582 9.07062 13.1882 8.39062 12.3482 8.39062H12.1682C11.3382 8.39062 10.6582 9.06062 10.6582 9.90062V10.8406C10.6582 11.6706 11.3282 12.3506 12.1682 12.3506H20.2482C21.0782 12.3506 21.7582 11.6806 21.7582 10.8406V9.90062C21.7582 9.07062 21.0882 8.39062 20.2482 8.39062C19.4182 8.39062 18.7382 9.06062 18.7382 9.90062V27.3806" stroke="#565EFF" stroke-width="2" stroke-linecap="round" stroke-linejoin="round"/>
</g>
</g>
</svg>
