<svg width="33" height="32" viewBox="0 0 33 32" fill="none" xmlns="http://www.w3.org/2000/svg">
<g id="Group 49">
<path id="Vector" d="M29.365 21.7109H20.1992V30.8538H29.365V21.7109Z" stroke="#565EFF" stroke-width="2" stroke-linecap="round" stroke-linejoin="round"/>
<path id="Vector_2" d="M23.8193 13.0265L25.6754 14.8779L31.5759 8.99219" stroke="#565EFF" stroke-width="2" stroke-linecap="round" stroke-linejoin="round"/>
<path id="Vector_3" d="M29.365 9.14062H20.1992V18.2835H29.365V9.14062Z" stroke="#565EFF" stroke-width="2" stroke-linecap="round" stroke-linejoin="round"/>
<path id="Vector_4" d="M12.7175 14.6492C16.4571 14.6492 19.4887 11.6252 19.4887 7.89491C19.4887 4.16462 16.4571 1.14062 12.7175 1.14062C8.97787 1.14062 5.94629 4.16462 5.94629 7.89491C5.94629 11.6252 8.97787 14.6492 12.7175 14.6492Z" stroke="#565EFF" stroke-width="2" stroke-linecap="round" stroke-linejoin="round"/>
<path id="Vector_5" d="M20.2108 15.9391C19.2713 15.0248 18.1714 14.2705 16.9225 13.7333C16.7507 13.6648 16.5674 13.6076 16.3955 13.5391" stroke="#565EFF" stroke-width="2" stroke-linecap="round" stroke-linejoin="round"/>
<path id="Vector_6" d="M23.2357 21.7098C23.018 20.5213 22.5826 19.3098 22.0098 18.2812" stroke="#565EFF" stroke-width="2" stroke-linecap="round" stroke-linejoin="round"/>
<path id="Vector_7" d="M9.02823 13.5547C8.85637 13.6233 8.67305 13.669 8.5012 13.749C5.21298 15.1547 2.84133 18.1147 2.19973 21.6347L1.97058 22.9033C1.21441 27.0518 4.41097 30.869 8.62723 30.869H16.7733C18.0221 30.869 19.1908 30.5375 20.1876 29.9547" stroke="#565EFF" stroke-width="2" stroke-linecap="round" stroke-linejoin="round"/>
</g>
</svg>
