<svg width="21" height="21" viewBox="0 0 21 21" fill="none" xmlns="http://www.w3.org/2000/svg">
<g id="Layer_1" clip-path="url(#clip0_7008_7403)">
<path id="Vector" d="M19.4004 3.91992H1.40039C0.848106 3.91992 0.400391 4.36764 0.400391 4.91992V8.91992C0.400391 9.47221 0.848106 9.91992 1.40039 9.91992H19.4004C19.9527 9.91992 20.4004 9.47221 20.4004 8.91992V4.91992C20.4004 4.36764 19.9527 3.91992 19.4004 3.91992Z" fill="#B3B3B3"/>
<path id="Vector_2" d="M1.40039 9.91992H19.4004V19.9199C19.4004 20.4699 18.9504 20.9199 18.4004 20.9199H2.40039C1.85039 20.9199 1.40039 20.4699 1.40039 19.9199V9.91992Z" fill="#CCCCCC"/>
<path id="Vector_3" d="M11.4004 4H5.40039C4.30039 4 3.40039 3.1 3.40039 2C3.40039 0.9 4.30039 0 5.40039 0C6.68039 0 7.91039 0.51 8.81039 1.41L11.4004 4Z" fill="#CCCCCC"/>
<path id="Vector_4" d="M9.40039 4H15.4004C16.5004 4 17.4004 3.1 17.4004 2C17.4004 0.9 16.5004 0 15.4004 0C14.1204 0 12.8904 0.51 11.9904 1.41L9.40039 4Z" fill="#999999"/>
<path id="Vector_5" d="M13.4004 3.95996H7.40039V9.95996H13.4004V3.95996Z" fill="#999999"/>
<path id="Vector_6" d="M13.4004 9.95996H7.40039V20.96H13.4004V9.95996Z" fill="#B3B3B3"/>
</g>
<defs>
<clipPath id="clip0_7008_7403">
<rect width="20" height="20.96" fill="white" transform="translate(0.400391)"/>
</clipPath>
</defs>
</svg>
