<svg width="20" height="21" viewBox="0 0 20 21" fill="none" xmlns="http://www.w3.org/2000/svg">
<g id="Layer_1" clip-path="url(#clip0_6864_239609)">
<path id="Vector" d="M19 3.92004H1C0.447715 3.92004 0 4.36776 0 4.92004V8.92004C0 9.47233 0.447715 9.92004 1 9.92004H19C19.5523 9.92004 20 9.47233 20 8.92004V4.92004C20 4.36776 19.5523 3.92004 19 3.92004Z" fill="#565EFF"/>
<path id="Vector_2" d="M1 9.92004H19V19.92C19 20.47 18.55 20.92 18 20.92H2C1.45 20.92 1 20.47 1 19.92V9.92004Z" fill="#9DA2FF"/>
<path id="Vector_3" d="M11 4H5C3.9 4 3 3.1 3 2C3 0.9 3.9 0 5 0C6.28 0 7.51 0.51 8.41 1.41L11 4Z" fill="#F2BD19"/>
<path id="Vector_4" d="M9 4H15C16.1 4 17 3.1 17 2C17 0.9 16.1 0 15 0C13.72 0 12.49 0.51 11.59 1.41L9 4Z" fill="#FFDA27"/>
<path id="Vector_5" d="M13 3.95996H7V9.95996H13V3.95996Z" fill="#F2BD19"/>
<path id="Vector_6" d="M13 9.95996H7V20.96H13V9.95996Z" fill="#FFDA27"/>
</g>
<defs>
<clipPath id="clip0_6864_239609">
<rect width="20" height="20.96" fill="white"/>
</clipPath>
</defs>
</svg>
