<svg width="24" height="24" viewBox="0 0 24 24" fill="none" xmlns="http://www.w3.org/2000/svg">
<path d="M20.7607 19.6085L16.114 14.9591C17.1202 13.6985 17.7256 12.1023 17.7256 10.367C17.7256 6.30696 14.4205 3 10.3628 3C6.30508 3 3 6.30696 3 10.367C3 14.427 6.30508 17.734 10.3628 17.734C12.0971 17.734 13.6924 17.1282 14.9523 16.1132L19.599 20.7626C19.7626 20.9263 19.9672 21 20.1799 21C20.3926 21 20.5971 20.9181 20.7607 20.7626C21.0798 20.4434 21.0798 19.9277 20.7607 19.6085ZM4.63618 10.367C4.63618 7.20737 7.20498 4.63711 10.3628 4.63711C13.5206 4.63711 16.0894 7.20737 16.0894 10.367C16.0894 13.5266 13.5206 16.0969 10.3628 16.0969C7.20498 16.0969 4.63618 13.5266 4.63618 10.367Z" fill="black"/>
</svg>
