<svg width="24" height="16" viewBox="0 0 24 16" fill="none" xmlns="http://www.w3.org/2000/svg">
<g id="Frame" clip-path="url(#clip0_8016_12614)">
<path id="Vector" d="M16 12C16 9.79086 14.2091 8 12 8C9.79086 8 8 9.79086 8 12C8 14.2091 9.79086 16 12 16C14.2091 16 16 14.2091 16 12Z" fill="#BCBCBC"/>
<path id="Vector_2" d="M4.03 12.5C4.02 12.33 4 12.17 4 12C4 7.59 7.59 4 12 4C16.41 4 20 7.59 20 12C20 12.17 19.99 12.33 19.97 12.5H23.97C23.97 12.33 24 12.17 24 12C24 5.37 18.63 0 12 0C5.37 0 0 5.37 0 12C0 12.17 0.02 12.33 0.03 12.5H4.03Z" fill="#BCBCBC"/>
</g>
<defs>
<clipPath id="clip0_8016_12614">
<rect width="24" height="16" fill="white"/>
</clipPath>
</defs>
</svg>
