<svg width="40" height="40" viewBox="0 0 40 40" fill="none" xmlns="http://www.w3.org/2000/svg">
<g id="Layer_1" clip-path="url(#clip0_7161_24581)">
<path id="Vector" d="M40 0H0V40H40V0Z" fill="#D8D8D8"/>
<path id="Vector_2" d="M30.0802 10.4934L23.2069 6.50672C21.2269 5.35339 18.7802 5.35339 16.7936 6.50672L9.92023 10.4934C7.95357 11.6334 6.74023 13.7401 6.74023 16.0134V23.9867C6.74023 26.2601 7.95357 28.3667 9.92023 29.5067L16.7936 33.4934C18.7736 34.6467 21.2202 34.6467 23.2069 33.4934L30.0802 29.5067C32.0469 28.3667 33.2602 26.2601 33.2602 23.9867V16.0134C33.2602 13.7401 32.0469 11.6334 30.0802 10.4934Z" fill="#A5A5A5"/>
<path id="Vector_3" d="M27.6734 22.4133L25.6268 23.6266C25.1534 23.9066 24.5668 23.9066 24.0868 23.6333L20.8601 21.76C20.3934 21.4866 19.8201 21.4866 19.3468 21.7533L16.0001 23.6533C15.5334 23.92 14.9534 23.92 14.4868 23.6466L12.4601 22.4733C11.4534 21.8866 11.4534 20.4333 12.4601 19.8466L15.7868 17.9133L12.4334 15.9666C11.4268 15.3866 11.4268 13.94 12.4201 13.3466L14.4668 12.1333C14.9401 11.8533 15.5268 11.8533 16.0068 12.1266L19.2334 14C19.7001 14.2733 20.2734 14.2733 20.7468 14.0066L24.0934 12.1066C24.5601 11.84 25.1401 11.84 25.6068 12.1133L27.6334 13.2866C28.6401 13.8733 28.6401 15.3266 27.6334 15.9133L24.3068 17.8466L27.6601 19.7933C28.6668 20.3733 28.6668 21.82 27.6734 22.4133Z" fill="#F2F2F2"/>
<path id="Vector_4" d="M15.9998 16.3266C16.6625 16.3266 17.1998 15.7894 17.1998 15.1266C17.1998 14.4639 16.6625 13.9266 15.9998 13.9266C15.3371 13.9266 14.7998 14.4639 14.7998 15.1266C14.7998 15.7894 15.3371 16.3266 15.9998 16.3266Z" fill="#A5A5A5"/>
<path id="Vector_5" d="M24.4471 16.3266C25.1098 16.3266 25.6471 15.7894 25.6471 15.1266C25.6471 14.4639 25.1098 13.9266 24.4471 13.9266C23.7843 13.9266 23.2471 14.4639 23.2471 15.1266C23.2471 15.7894 23.7843 16.3266 24.4471 16.3266Z" fill="#A5A5A5"/>
</g>
<defs>
<clipPath id="clip0_7161_24581">
<rect width="40" height="40" fill="white"/>
</clipPath>
</defs>
</svg>
