<svg width="24" height="24" viewBox="0 0 24 24" fill="none" xmlns="http://www.w3.org/2000/svg">
<g id="Layer_1" clip-path="url(#clip0_7600_24211)">
<path id="Vector" d="M12 24C18.6274 24 24 18.6274 24 12C24 5.37258 18.6274 0 12 0C5.37258 0 0 5.37258 0 12C0 18.6274 5.37258 24 12 24Z" fill="#B3B3B3"/>
<path id="Vector_2" d="M15 5.5C15 3.84 13.66 2.5 12 2.5C10.34 2.5 9 3.84 9 5.5C9 5.64 9.02 5.77 9.04 5.91H9.03L10 13.08C10 14.18 10.9 15.08 12 15.08C13.1 15.08 14 14.18 14 13.08L14.97 5.9H14.96C14.98 5.77 15 5.64 15 5.5Z" fill="white"/>
<path id="Vector_3" d="M12 21C13.1046 21 14 20.1046 14 19C14 17.8954 13.1046 17 12 17C10.8954 17 10 17.8954 10 19C10 20.1046 10.8954 21 12 21Z" fill="white"/>
</g>
<defs>
<clipPath id="clip0_7600_24211">
<rect width="24" height="24" fill="white"/>
</clipPath>
</defs>
</svg>
