<svg width="224" height="372" viewBox="0 0 224 372" fill="none" xmlns="http://www.w3.org/2000/svg">
<g clip-path="url(#clip0_145_5875)">
<path d="M272.83 56.678L192.476 10.0787C169.301 -3.35956 140.695 -3.35956 117.519 10.0787L37.1697 56.678C14.1626 70.0228 0 94.5957 0 121.173V214.306C0 240.884 14.1626 265.457 37.1697 278.801L117.519 325.401C140.695 338.839 169.301 338.839 192.476 325.401L272.826 278.801C295.837 265.457 309.995 240.884 309.995 214.306V121.173C309.995 94.5957 295.833 70.0228 272.826 56.678H272.83Z" fill="#565EFF"/>
<path d="M244.748 195.895L220.782 210.076C215.249 213.351 208.373 213.379 202.807 210.155L165.048 188.26C159.585 185.092 152.855 185.059 147.359 188.176L108.244 210.356C102.753 213.468 96.0177 213.435 90.5547 210.272L66.8787 196.539C55.0828 189.699 55.0828 172.686 66.8787 165.846L105.807 143.268L66.6121 120.536C54.877 113.733 54.8022 96.8274 66.4765 89.9213L90.4425 75.7402C95.9756 72.4647 102.851 72.4367 108.417 75.6607L146.176 97.5563C151.639 100.724 158.369 100.757 163.865 97.6404L202.981 75.4598C208.472 72.3479 215.207 72.3806 220.67 75.5439L244.346 89.2765C256.142 96.1171 256.142 113.13 244.346 119.97L205.417 142.548L244.612 165.28C256.347 172.083 256.422 188.989 244.748 195.895Z" fill="white"/>
</g>
<defs>
<clipPath id="clip0_145_5875">
<rect width="310" height="335.479" fill="white"/>
</clipPath>
</defs>
</svg>
