<svg width="24" height="24" viewBox="0 0 24 24" fill="none" xmlns="http://www.w3.org/2000/svg">
<g clip-path="url(#clip0_1226_17462)">
<g clip-path="url(#clip1_1226_17462)">
<path d="M12 3C16.96 3 21 7.04 21 12C21 16.96 16.96 21 12 21C7.04 21 3 16.96 3 12C3 7.04 7.04 3 12 3ZM12 0C5.37 0 0 5.37 0 12C0 18.63 5.37 24 12 24C18.63 24 24 18.63 24 12C24 5.37 18.63 0 12 0Z" fill="#004499"/>
<path d="M12 5.13965V11.9996H15.43" stroke="#004499" stroke-width="2" stroke-linecap="round" stroke-linejoin="round"/>
</g>
</g>
<defs>
<clipPath id="clip0_1226_17462">
<rect width="24" height="24" fill="white"/>
</clipPath>
<clipPath id="clip1_1226_17462">
<rect width="24" height="24" fill="white"/>
</clipPath>
</defs>
</svg>
