<svg width="17" height="16" viewBox="0 0 17 16" fill="none" xmlns="http://www.w3.org/2000/svg">
<path fill-rule="evenodd" clip-rule="evenodd" d="M13.8304 6.70096C13.2728 7.20353 12.6274 7.45162 11.877 7.45162H11.8735C11.1231 7.45162 10.4777 7.20353 9.92006 6.70096C9.6106 6.4219 9.20096 6.25236 8.75177 6.25236C7.78734 6.25236 7.00539 7.03494 7.00539 8.00016C7.00539 8.96538 7.78734 9.74796 8.75177 9.74796C9.20096 9.74796 9.6106 9.5781 9.92006 9.29904C10.4777 8.79647 11.1231 8.54838 11.8735 8.54838H11.877C12.292 8.54838 12.6749 8.62437 13.0284 8.77699C13.2341 8.86576 13.3404 9.09086 13.2785 9.30638C12.7125 11.2745 10.9001 12.7142 8.75145 12.7142C6.15007 12.7142 4.04128 10.6037 4.04128 8.00016C4.04128 5.39666 6.15007 3.28583 8.75145 3.28583C8.79037 3.28583 8.82897 3.28614 8.86757 3.2871V3.28551C9.76341 3.27273 10.4857 2.5422 10.4857 1.64243C10.4857 0.742671 9.79436 0.0447008 8.92596 0.00159648C8.92149 0.00159648 8.91734 0.00127719 8.91288 0.00127719C8.88033 0.000638604 8.84747 0.000319313 8.81461 2.13451e-08C8.79356 2.13451e-08 8.77218 2.13451e-08 8.75113 2.13451e-08C4.3367 -0.00031927 0.757812 3.58149 0.757812 7.99984C0.757812 12.4182 4.3367 16 8.75145 16C13.1662 16 16.7425 12.4207 16.7451 8.00463V7.99537C16.7425 7.03239 15.9619 6.25236 14.9987 6.25236C14.5495 6.25236 14.1399 6.42222 13.8304 6.70128V6.70096Z" fill="#84898E"/>
</svg>
