<svg width="232" height="178" viewBox="0 0 232 178" fill="none" xmlns="http://www.w3.org/2000/svg">
<g id="Layer_1" clip-path="url(#clip0_7269_104858)">
<path id="Vector" d="M87.3594 60.6167L112.233 54.9747C116.107 54.0985 120.181 55.0516 123.271 57.5728L139.767 71.0398C146.485 76.528 146.008 86.9357 138.814 91.7783L119.459 104.815L87.3748 60.6321L87.3594 60.6167Z" fill="#FFD5B8"/>
<path id="Vector_2" d="M59.1334 111.359L102.094 68.3984L60.0248 26.3295L17.0645 69.2898L59.1334 111.359Z" fill="#FFD5B8"/>
<path id="Vector_3" d="M217.175 62.8978L174.215 19.9375L132.146 62.0065L175.106 104.967L217.175 62.8978Z" fill="#F5BC8F"/>
<path id="Vector_4" d="M173.541 85.6479L147.637 65.8471C139.643 57.853 126.684 57.853 118.69 65.8471L71.709 112.828L127.376 168.494L156.662 139.208C165.101 130.768 172.066 121.006 177.308 110.291L178.676 107.478C182.381 99.8989 180.229 90.7672 173.526 85.6479H173.541Z" fill="#F5BC8F"/>
<path id="Vector_5" d="M159.513 149.488C164.106 154.081 171.552 154.081 176.145 149.488C180.738 144.895 180.738 137.449 176.145 132.856L150.708 107.419C146.115 102.826 138.669 102.826 134.076 107.419C129.483 112.012 129.483 119.458 134.076 124.051L159.513 149.488Z" fill="#FFD5B8"/>
<path id="Vector_6" d="M140.318 161.847C144.911 166.44 152.357 166.44 156.95 161.847C161.542 157.254 161.542 149.808 156.95 145.215L131.513 119.778C126.92 115.185 119.473 115.185 114.881 119.778C110.288 124.371 110.288 131.817 114.881 136.41L140.318 161.847Z" fill="#FFD5B8"/>
<path id="Vector_7" d="M124.839 170.41C129.432 175.002 136.878 175.002 141.471 170.41C146.064 165.817 146.064 158.371 141.471 153.778L116.034 128.341C111.441 123.748 103.995 123.748 99.4022 128.341C94.8094 132.934 94.8094 140.38 99.4022 144.973L124.839 170.41Z" fill="#FFD5B8"/>
<path id="Vector_8" d="M105.751 174.566C110.344 179.159 117.79 179.159 122.383 174.566C126.976 169.973 126.976 162.527 122.383 157.934L96.9462 132.497C92.3535 127.904 84.9071 127.904 80.3143 132.497C75.7215 137.09 75.7215 144.536 80.3143 149.129L105.751 174.566Z" fill="#FFD5B8"/>
<path id="Vector_9" d="M60.686 92.0541L86.59 72.2534C94.584 64.2593 107.544 64.2593 115.538 72.2534L162.518 119.234L106.852 174.901L77.5659 145.615C69.1259 137.175 62.1619 127.413 56.9196 116.697L55.5514 113.884C51.8464 106.305 53.9987 97.1734 60.7014 92.0541H60.686Z" fill="#FFD5B8"/>
<path id="Vector_10" d="M66.4655 114.807L66.4547 114.796C62.7744 111.116 56.8076 111.116 53.1274 114.796L48.3552 119.569C44.675 123.249 44.675 129.216 48.3552 132.896L48.3661 132.907C52.0463 136.587 58.0131 136.587 61.6934 132.907L66.4655 128.135C70.1457 124.454 70.1457 118.488 66.4655 114.807Z" fill="#F5BC8F"/>
<path id="Vector_11" d="M79.7683 126.807L79.7574 126.796C76.0772 123.116 70.1103 123.116 66.4301 126.796L57.3097 135.917C53.6295 139.597 53.6295 145.564 57.3097 149.244L57.3206 149.255C61.0008 152.935 66.9677 152.935 70.6479 149.255L79.7683 140.135C83.4485 136.454 83.4485 130.488 79.7683 126.807Z" fill="#F5BC8F"/>
<path id="Vector_12" d="M96.7917 136.167L96.7808 136.156C93.1006 132.476 87.1338 132.476 83.4535 136.156L70.4959 149.113C66.8157 152.794 66.8157 158.761 70.4959 162.441L70.5067 162.452C74.187 166.132 80.1538 166.132 83.834 162.452L96.7917 149.494C100.472 145.814 100.472 139.847 96.7917 136.167Z" fill="#F5BC8F"/>
<path id="Vector_13" d="M108.202 150.237L108.191 150.226C104.511 146.546 98.5439 146.546 94.8637 150.226L85.7433 159.347C82.0631 163.027 82.0631 168.994 85.7433 172.674L85.7542 172.685C89.4344 176.365 95.4012 176.365 99.0815 172.685L108.202 163.564C111.882 159.884 111.882 153.917 108.202 150.237Z" fill="#F5BC8F"/>
<path id="Vector_14" d="M157.678 58.3589L132.804 52.7169C128.93 51.8406 124.856 52.7938 121.766 55.315L105.27 68.782C98.552 74.2702 99.0286 84.6779 106.223 89.5205C117.799 97.3147 133.065 96.8996 144.18 88.4597L154.342 80.7577L147.024 73.0404L157.678 58.3743V58.3589Z" fill="#F5BC8F"/>
<path id="Vector_15" d="M103.056 71.3281L81.4719 104.104C79.8423 106.579 81.1337 109.946 84.0085 110.684L88.7742 111.914C94.5545 113.405 100.704 111.652 104.824 107.332L118.66 92.8353L103.041 71.3281H103.056Z" fill="#F5BC8F"/>
<path id="Vector_16" d="M49.5186 13.9345L3.47102 59.9821C-0.107139 63.5603 -0.10714 69.3616 3.47102 72.9398L12.9066 82.3754C16.4848 85.9536 22.2862 85.9536 25.8643 82.3754L71.9119 36.3278C75.49 32.7497 75.49 26.9483 71.9119 23.3701L62.4763 13.9345C58.8981 10.3564 53.0967 10.3564 49.5186 13.9345Z" fill="#7683FF"/>
<path id="Vector_17" d="M17.5966 76.1307C19.6088 76.1307 21.24 74.4994 21.24 72.4872C21.24 70.475 19.6088 68.8438 17.5966 68.8438C15.5844 68.8438 13.9531 70.475 13.9531 72.4872C13.9531 74.4994 15.5844 76.1307 17.5966 76.1307Z" fill="white"/>
<path id="Vector_18" d="M157.104 36.3408L203.152 82.3884C206.73 85.9665 212.532 85.9665 216.11 82.3884L225.545 72.9527C229.123 69.3746 229.123 63.5732 225.545 59.9951L179.498 13.9475C175.92 10.3693 170.118 10.3693 166.54 13.9475L157.104 23.3831C153.526 26.9613 153.526 32.7626 157.104 36.3408Z" fill="#BBC5FF"/>
<path id="Vector_19" d="M211.407 76.1307C213.419 76.1307 215.051 74.4994 215.051 72.4872C215.051 70.475 213.419 68.8438 211.407 68.8438C209.395 68.8438 207.764 70.475 207.764 72.4872C207.764 74.4994 209.395 76.1307 211.407 76.1307Z" fill="white"/>
<g id="Group" opacity="0.6">
<path id="Vector_20" d="M207.762 164.279C220.719 164.279 231.222 153.775 231.222 140.819C231.222 127.863 220.719 117.359 207.762 117.359C194.806 117.359 184.303 127.863 184.303 140.819C184.303 153.775 194.806 164.279 207.762 164.279Z" fill="#FFCE61"/>
<path id="Vector_21" d="M207.763 155.299C215.761 155.299 222.244 148.816 222.244 140.818C222.244 132.82 215.761 126.336 207.763 126.336C199.765 126.336 193.281 132.82 193.281 140.818C193.281 148.816 199.765 155.299 207.763 155.299Z" fill="#FFE0A1"/>
</g>
<path id="Vector_22" d="M139.044 19.893C144.537 19.893 148.991 15.4398 148.991 9.94649C148.991 4.4532 144.537 0 139.044 0C133.551 0 129.098 4.4532 129.098 9.94649C129.098 15.4398 133.551 19.893 139.044 19.893Z" fill="#FFCE61"/>
<path id="Vector_23" d="M139.044 16.0804C142.432 16.0804 145.178 13.3341 145.178 9.94643C145.178 6.55875 142.432 3.8125 139.044 3.8125C135.656 3.8125 132.91 6.55875 132.91 9.94643C132.91 13.3341 135.656 16.0804 139.044 16.0804Z" fill="#FFE0A1"/>
<path id="Vector_24" d="M19.1324 123.859C27.1813 123.859 33.7063 117.334 33.7063 109.285C33.7063 101.236 27.1813 94.7109 19.1324 94.7109C11.0835 94.7109 4.55859 101.236 4.55859 109.285C4.55859 117.334 11.0835 123.859 19.1324 123.859Z" fill="#FFCE61"/>
<path id="Vector_25" d="M19.134 118.284C24.1009 118.284 28.1273 114.257 28.1273 109.29C28.1273 104.323 24.1009 100.297 19.134 100.297C14.1671 100.297 10.1406 104.323 10.1406 109.29C10.1406 114.257 14.1671 118.284 19.134 118.284Z" fill="#FFE0A1"/>
</g>
<defs>
<clipPath id="clip0_7269_104858">
<rect width="230.445" height="178.007" fill="white" transform="translate(0.777344)"/>
</clipPath>
</defs>
</svg>
