<svg width="168" height="180" viewBox="0 0 168 180" fill="none" xmlns="http://www.w3.org/2000/svg">
<g id="Layer_1" clip-path="url(#clip0_7243_83175)">
<g id="Group">
<g id="Group_2">
<path id="Vector" d="M143.245 29.3654C151.354 29.3654 157.928 22.7918 157.928 14.6827C157.928 6.57368 151.354 0 143.245 0C135.136 0 128.562 6.57368 128.562 14.6827C128.562 22.7918 135.136 29.3654 143.245 29.3654Z" fill="#FFD05E"/>
<path id="Vector_2" d="M143.245 23.712C148.231 23.712 152.273 19.6701 152.273 14.6841C152.273 9.69816 148.231 5.65625 143.245 5.65625C138.259 5.65625 134.217 9.69816 134.217 14.6841C134.217 19.6701 138.259 23.712 143.245 23.712Z" fill="#FFE2A4"/>
</g>
<g id="Group_3" opacity="0.5">
<path id="Vector_3" d="M46.1827 145.615C54.2917 145.615 60.8654 139.042 60.8654 130.933C60.8654 122.824 54.2917 116.25 46.1827 116.25C38.0737 116.25 31.5 122.824 31.5 130.933C31.5 139.042 38.0737 145.615 46.1827 145.615Z" fill="#FFD05E"/>
<path id="Vector_4" d="M46.1821 139.962C51.1681 139.962 55.21 135.92 55.21 130.934C55.21 125.948 51.1681 121.906 46.1821 121.906C41.1962 121.906 37.1543 125.948 37.1543 130.934C37.1543 135.92 41.1962 139.962 46.1821 139.962Z" fill="#FFE2A4"/>
</g>
<g id="Group_4">
<path id="Vector_5" d="M31.2532 74.6901C44.7029 74.6901 55.6061 63.7869 55.6061 50.3372C55.6061 36.8875 44.7029 25.9844 31.2532 25.9844C17.8035 25.9844 6.90039 36.8875 6.90039 50.3372C6.90039 63.7869 17.8035 74.6901 31.2532 74.6901Z" fill="#FFD05E"/>
<path id="Vector_6" d="M31.2541 65.3128C39.5233 65.3128 46.2269 58.6093 46.2269 50.34C46.2269 42.0707 39.5233 35.3672 31.2541 35.3672C22.9848 35.3672 16.2812 42.0707 16.2812 50.34C16.2812 58.6093 22.9848 65.3128 31.2541 65.3128Z" fill="#FFE2A4"/>
</g>
<path id="Vector_7" d="M160.225 21.3393L87.8918 13.3408C83.1461 12.816 78.8734 16.2378 78.3486 20.9836L75.5452 46.3366C75.0204 51.0824 78.4422 55.355 83.188 55.8798L155.521 63.8782C160.267 64.403 164.54 60.9812 165.064 56.2354L167.868 30.8825C168.393 26.1367 164.971 21.864 160.225 21.3393Z" fill="#E7366B"/>
<path id="Vector_8" d="M95.8546 50.9499L7.36369 65.0605C2.64855 65.8124 -0.564319 70.2443 0.187548 74.9594L5.46396 108.049C6.21583 112.764 10.6477 115.977 15.3629 115.225L103.854 101.115C108.569 100.363 111.782 95.9309 111.03 91.2157L105.753 58.1261C105.002 53.4109 100.57 50.198 95.8546 50.9499Z" fill="#29CC7A"/>
<g id="Group_5">
<path id="Vector_9" d="M24.8981 73.5187C28.5165 72.9414 31.3309 73.0121 33.34 73.7294C35.3491 74.4467 36.5571 76.0849 36.9642 78.6395C37.1258 79.6513 37.1085 80.601 36.9122 81.4886C36.7159 82.3762 36.3507 83.1354 35.8153 83.7661C35.2798 84.3969 34.5813 84.8587 33.7196 85.1517L33.7499 85.3422C34.6895 85.374 35.5613 85.5587 36.3681 85.8979C37.1749 86.2356 37.8604 86.8014 38.4291 87.5938C38.9963 88.3861 39.3932 89.4903 39.6184 90.9076C39.8811 92.553 39.7064 94.0266 39.0973 95.3313C38.4883 96.6346 37.4852 97.7156 36.091 98.5744C34.6967 99.4332 32.9749 100.025 30.9254 100.351L20.7905 101.966L16.4707 74.8624L24.8981 73.5187ZM27.2565 84.1587C28.9264 83.8931 30.0421 83.4428 30.6035 82.8078C31.1635 82.1742 31.3641 81.35 31.2025 80.3383C31.0365 79.3006 30.5386 78.615 29.7072 78.2801C28.8759 77.9453 27.6375 77.9092 25.9922 78.1719L22.9555 78.6554L23.9181 84.6913L27.2579 84.1587H27.2565ZM24.6427 89.2463L25.7685 96.307L29.5268 95.708C31.2472 95.4338 32.3961 94.907 32.9734 94.1276C33.5493 93.3482 33.7499 92.4014 33.5724 91.2886C33.4641 90.6059 33.2231 90.0344 32.8507 89.574C32.4784 89.115 31.9169 88.8018 31.1635 88.6358C30.4101 88.4713 29.4272 88.4843 28.212 88.6777L24.6441 89.2463H24.6427Z" fill="white"/>
<path id="Vector_10" d="M66.8309 84.8188C67.1296 86.6922 66.9867 88.4473 66.4051 90.0825C65.822 91.7192 64.7713 93.1063 63.2544 94.2436C61.736 95.3809 59.7111 96.1516 57.1809 96.5543C53.5871 97.1273 50.7077 96.6452 48.5428 95.1096C46.3778 93.5739 45.0543 91.2992 44.5751 88.2885L41.791 70.8274L47.5224 69.9138L50.1665 86.5031C50.5216 88.7302 51.2273 90.2269 52.2838 90.9918C53.3403 91.7582 54.7663 91.9978 56.5632 91.7106C57.829 91.5085 58.8191 91.1304 59.535 90.5747C60.2509 90.019 60.7199 89.257 60.9422 88.2871C61.163 87.3172 61.1645 86.1366 60.9422 84.7452L58.3038 68.1949L64.0352 67.2812L66.8309 84.8188Z" fill="white"/>
<path id="Vector_11" d="M80.8831 76.0396L84.7598 63.978L90.9472 62.9922L84.5895 80.9772L86.2709 91.5306L80.5771 92.4384L78.9245 82.0755L67.2598 66.7693L73.4847 65.7763L80.8817 76.0411L80.8831 76.0396Z" fill="white"/>
</g>
<g id="Group_6">
<path id="Vector_12" d="M102.344 41.2628C102.198 42.5877 101.744 43.7077 100.983 44.6242C100.223 45.5407 99.1964 46.1989 97.9076 46.5987C96.6187 46.9985 95.0902 47.1009 93.3236 46.9061C92.5457 46.8195 91.7894 46.6838 91.0533 46.4962C90.3187 46.3086 89.6201 46.0776 88.9591 45.802C88.2981 45.5263 87.6774 45.2088 87.1016 44.8465L87.5937 40.3997C88.6156 40.9813 89.6764 41.5298 90.7805 42.045C91.8832 42.5603 93.0032 42.8807 94.1377 43.0063C94.9156 43.0929 95.5535 43.0568 96.05 42.898C96.5465 42.7407 96.9247 42.4954 97.1845 42.162C97.4443 41.8286 97.6001 41.4316 97.6521 40.9683C97.7156 40.4011 97.5742 39.896 97.2292 39.4529C96.8843 39.0112 96.4051 38.5797 95.7917 38.1611C95.1783 37.7426 94.4725 37.2865 93.6758 36.7943C93.1779 36.484 92.6438 36.1217 92.0723 35.7075C91.5007 35.2933 90.9638 34.7982 90.4645 34.2209C89.9636 33.645 89.5754 32.9681 89.2997 32.1931C89.0226 31.418 88.9418 30.5145 89.0558 29.484C89.2045 28.1388 89.6418 27.0217 90.3678 26.1326C91.0937 25.245 92.0579 24.6114 93.2601 24.2333C94.4624 23.8551 95.8407 23.7526 97.3966 23.9244C98.5744 24.0543 99.6785 24.3155 100.71 24.7052C101.742 25.0963 102.808 25.6073 103.909 26.2394L101.952 29.79C100.967 29.2559 100.078 28.8273 99.2845 28.5054C98.4892 28.1836 97.6608 27.9743 96.7991 27.879C96.2102 27.8141 95.695 27.8531 95.2533 27.9959C94.8117 28.1388 94.4624 28.3669 94.204 28.6786C93.9457 28.9904 93.7913 29.3786 93.7408 29.8405C93.683 30.3658 93.7913 30.8306 94.0655 31.2333C94.3397 31.6359 94.7742 32.0415 95.3688 32.4471C95.962 32.8527 96.7067 33.3405 97.6016 33.9077C98.6971 34.5832 99.6179 35.2586 100.363 35.937C101.107 36.6153 101.656 37.3788 102.009 38.2261C102.363 39.0747 102.474 40.0865 102.344 41.2642V41.2628Z" fill="white"/>
<path id="Vector_13" d="M118.718 49.392L105.754 47.9588L108.242 25.4375L121.206 26.8707L120.774 30.782L112.574 29.8757L112.026 34.8276L119.66 35.6705L119.229 39.5819L111.595 38.739L110.954 44.5425L119.155 45.4489L118.719 49.392H118.718Z" fill="white"/>
<path id="Vector_14" d="M123.418 49.9119L125.906 27.3906L130.669 27.9174L128.617 46.4956L137.764 47.5059L137.329 51.449L123.418 49.9119Z" fill="white"/>
<path id="Vector_15" d="M141.24 51.8807L143.728 29.3594L148.491 29.8862L146.439 48.4644L155.587 49.4747L155.151 53.4178L141.24 51.8807Z" fill="white"/>
</g>
<path id="Vector_16" d="M118.029 147.232C127.683 136.425 135.695 124.256 141.804 111.115L145.19 103.832C146.928 100.095 145.307 95.6571 141.571 93.9194C140.09 93.2309 138.499 93.0721 137.011 93.3608C138.667 89.6472 137.044 85.2798 133.344 83.5593C131.595 82.7453 129.692 82.6688 127.985 83.2C128.259 80.1546 126.631 77.128 123.698 75.7655C121.702 74.8375 119.505 74.8678 117.628 75.6674L124.273 61.3758C126.01 57.6391 124.39 53.2009 120.653 51.4632C116.916 49.7255 112.478 51.3463 110.74 55.083L93.0338 93.1631C93.1421 79.5527 84.6035 77.6086 80.9404 79.0461C77.0954 80.5558 76.7375 83.8307 76.9237 87.6222C77.1084 91.4124 77.5559 95.1087 75.5554 106.633C73.9303 115.998 79.4985 126.401 81.6433 129.973C82.1398 130.802 82.1975 131.82 81.7992 132.701L76.8573 143.64C72.7107 152.819 76.3478 163.642 85.1981 168.454L85.7394 168.749C95.6707 174.148 108.096 169.859 112.58 159.483L117.551 147.983C117.67 147.708 117.831 147.456 118.029 147.234V147.232Z" fill="#FCE1B1"/>
</g>
<path id="Vector_17" d="M113.303 158.447L76.613 139.817C73.4893 138.231 69.6712 139.478 68.0851 142.601L63.2319 152.159C61.6458 155.283 62.8923 159.101 66.016 160.687L102.706 179.317C105.829 180.903 109.647 179.656 111.234 176.533L116.087 166.975C117.673 163.851 116.426 160.033 113.303 158.447Z" fill="#565EFF"/>
</g>
<defs>
<clipPath id="clip0_7243_83175">
<rect width="167.849" height="180" fill="white" transform="translate(0.0761719)"/>
</clipPath>
</defs>
</svg>
