<svg width="198" height="212" viewBox="0 0 198 212" fill="none" xmlns="http://www.w3.org/2000/svg">
<g id="Group 85">
<g id="Group" opacity="0.43">
<path id="Vector" d="M179.083 74.2881C189.38 74.2881 197.728 65.9408 197.728 55.644C197.728 45.3472 189.38 37 179.083 37C168.787 37 160.439 45.3472 160.439 55.644C160.439 65.9408 168.787 74.2881 179.083 74.2881Z" fill="#FFCE61"/>
<path id="Vector_2" d="M179.083 67.1665C185.446 67.1665 190.604 62.0085 190.604 55.6457C190.604 49.283 185.446 44.125 179.083 44.125C172.721 44.125 167.562 49.283 167.562 55.6457C167.562 62.0085 172.721 67.1665 179.083 67.1665Z" fill="#FFF0D0"/>
</g>
<path id="Vector_3" d="M70.6797 14.9338L70.461 166.26C70.4491 174.509 77.1262 181.205 85.3747 181.217L163.867 181.33C172.115 181.342 178.812 174.665 178.824 166.417L179.042 15.0904C179.054 6.8419 172.377 0.145473 164.129 0.133555L85.6365 0.0201454C77.388 0.00822751 70.6916 6.68533 70.6797 14.9338Z" fill="#565EFF"/>
<path id="Vector_4" d="M81.6078 12.062L81.3809 169.156L167.878 169.281L168.105 12.187L81.6078 12.062Z" fill="#7683FF"/>
<path id="Vector_5" d="M131.249 4.31058L118.463 4.2921C117.3 4.29042 116.356 5.22678 116.354 6.38351C116.353 7.54023 117.294 8.47931 118.457 8.48099L131.243 8.49946C132.406 8.50114 133.35 7.56479 133.351 6.40806C133.353 5.25133 132.412 4.31226 131.249 4.31058Z" fill="#7683FF"/>
<path id="Vector_6" d="M124.454 144.18H79.5156V185.941H124.454V144.18Z" fill="#A9EBCA"/>
<path id="Vector_7" d="M4.78902 114.906H0V122.316H4.78902V114.906Z" fill="#A9EBCA"/>
<path id="Vector_8" d="M4.6083 110.609H103.717C109.364 110.609 114.033 114.691 115.027 120.037C114.334 119.946 113.656 119.826 112.933 119.826H4.6083C2.06319 119.826 0 117.748 0 115.218C0 112.688 2.07825 110.609 4.6083 110.609Z" fill="#A9EBCA"/>
<path id="Vector_9" d="M104.421 129.963C117.113 129.963 127.402 119.673 127.402 106.981C127.402 94.2891 117.113 84 104.421 84C91.7285 84 81.4395 94.2891 81.4395 106.981C81.4395 119.673 91.7285 129.963 104.421 129.963Z" fill="#FFCE61"/>
<path id="Vector_10" d="M104.419 121.17C112.254 121.17 118.605 114.818 118.605 106.983C118.605 99.1483 112.254 92.7969 104.419 92.7969C96.5839 92.7969 90.2324 99.1483 90.2324 106.983C90.2324 114.818 96.5839 121.17 104.419 121.17Z" fill="#FFE0A1"/>
<path id="Vector_11" d="M124.469 200.08C124.469 206.436 119.304 211.601 112.948 211.601H11.5207C5.16551 211.601 0 206.436 0 200.08V118.125C1.35538 118.923 2.9216 119.405 4.6083 119.405H112.933C119.289 119.405 124.454 124.571 124.454 130.926V147.055H101.413C91.2322 147.055 82.9795 155.308 82.9795 165.488C82.9795 175.668 91.2322 183.921 101.413 183.921H124.454V200.05L124.469 200.08Z" fill="#29CC7A"/>
<path id="Vector_12" d="M132.857 177.248C132.857 179.1 131.351 180.606 129.499 180.606H102.602C94.2588 180.606 87.4668 173.814 87.4668 165.471C87.4668 157.128 94.2588 150.336 102.602 150.336H129.499C131.351 150.336 132.857 151.842 132.857 153.694V177.233V177.248Z" fill="#29CC7A"/>
<path id="Vector_13" d="M98.0839 169.133C100.097 169.133 101.728 167.501 101.728 165.488C101.728 163.475 100.097 161.844 98.0839 161.844C96.0711 161.844 94.4395 163.475 94.4395 165.488C94.4395 167.501 96.0711 169.133 98.0839 169.133Z" fill="white"/>
<path id="Vector_14" d="M38.5973 106.551C38.0552 101.114 38.9437 95.5419 40.7358 90.2107C41.6545 87.5451 42.8141 84.9247 44.305 82.4549C45.7507 79.955 47.4826 77.5906 49.4554 75.422C51.4132 73.2233 53.6722 71.2806 56.0817 69.5637C58.4763 67.8017 61.0816 66.3409 63.7622 65.0609C69.1687 62.6212 74.9216 61.0851 80.6895 60.4375L81.8491 72.8167C77.0902 73.1781 72.4216 73.9913 68.0242 75.4973C63.5966 76.943 59.5003 79.202 55.7806 82.1236C53.9282 83.5844 52.1511 85.1958 50.4795 86.9729C48.838 88.765 47.2718 90.6926 45.8411 92.7558C42.9797 96.8973 40.525 101.506 38.5823 106.551H38.5973Z" fill="#FFCEFF"/>
<path id="Vector_15" d="M76.5332 82.0292L102.888 67.617L77.226 52L76.5332 82.0292Z" fill="#FFCEFF"/>
</g>
</svg>
