<svg width="60" height="55" viewBox="0 0 60 55" fill="none" xmlns="http://www.w3.org/2000/svg">
<path d="M48.8889 0.833008H11.1111C4.97778 0.833008 0 5.81079 0 11.9441V43.0552C0 49.1886 4.97778 54.1663 11.1111 54.1663H48.8889C55.0222 54.1663 60 49.1886 60 43.0552V11.9441C60 5.81079 55.0222 0.833008 48.8889 0.833008ZM11.1111 5.27745H48.8889C52.5556 5.27745 55.5556 8.27745 55.5556 11.9441V23.6108L51.1778 19.233C49.2444 17.2997 46.6667 16.233 43.9111 16.233C41.1556 16.233 38.5778 17.2997 36.6444 19.233L32.6667 23.2108L27.3333 17.8775C23.3333 13.8775 16.8 13.8775 12.8 17.8775L4.42222 26.2552V11.9441C4.42222 8.27745 7.42222 5.27745 11.0889 5.27745H11.1111ZM11.1111 49.7219C7.44444 49.7219 4.44444 46.7219 4.44444 43.0552V32.5441L15.9556 21.033C18.2222 18.7663 21.9333 18.7663 24.2 21.033L51.2889 48.1219C51.6 48.433 52 48.6108 52.4222 48.6775C51.4 49.3219 50.1778 49.7219 48.8889 49.7219H11.1111ZM54.9556 45.8108C54.8444 45.5219 54.6889 45.233 54.4444 44.9886L35.8222 26.3663L39.8 22.3886C42 20.1886 45.8444 20.1886 48.0444 22.3886L55.5556 29.8997V43.0552C55.5556 44.033 55.3333 44.9663 54.9556 45.8108Z" fill="#84898E"/>
</svg>
