<svg width="390" height="90" viewBox="0 0 390 90" fill="none" xmlns="http://www.w3.org/2000/svg">
<rect opacity="0.2" x="81" y="44" width="228" height="1.36986" fill="white"/>
<rect x="289" y="25" width="40" height="40" rx="20" fill="#565EFF"/>
<path opacity="0.2" d="M309 27.6667C318.56 27.6667 326.333 35.44 326.333 45C326.333 54.56 318.56 62.3333 309 62.3333C299.44 62.3333 291.667 54.56 291.667 45C291.667 35.44 299.44 27.6667 309 27.6667ZM309 25C297.953 25 289 33.9533 289 45C289 56.0467 297.953 65 309 65C320.047 65 329 56.0467 329 45C329 33.9533 320.047 25 309 25Z" fill="white"/>
<path opacity="0.3" d="M308.753 52.7C308.366 52.7 307.933 52.6733 307.453 52.62C306.973 52.5667 306.506 52.4933 306.053 52.4C305.599 52.3067 305.219 52.2 304.913 52.08V49.72C305.459 49.9467 306.026 50.1133 306.613 50.22C307.213 50.3267 307.793 50.38 308.353 50.38C309.299 50.38 309.999 50.2533 310.453 50C310.919 49.7333 311.153 49.2533 311.153 48.56C311.153 47.9867 310.946 47.58 310.533 47.34C310.133 47.1 309.553 46.98 308.793 46.98H306.773L306.973 45H308.653C309.426 45 309.993 44.8733 310.353 44.62C310.713 44.3533 310.893 43.94 310.893 43.38C310.893 42.82 310.686 42.4067 310.273 42.14C309.873 41.86 309.226 41.72 308.333 41.72C307.759 41.72 307.186 41.78 306.613 41.9C306.053 42.02 305.559 42.1733 305.133 42.36V40.06C305.559 39.8733 306.106 39.72 306.773 39.6C307.453 39.48 308.126 39.42 308.793 39.42C310.393 39.42 311.599 39.7533 312.413 40.42C313.226 41.0867 313.633 41.9467 313.633 43C313.633 43.6267 313.486 44.22 313.193 44.78C312.913 45.3267 312.473 45.7267 311.873 45.98C312.566 46.1933 313.073 46.5533 313.393 47.06C313.726 47.5533 313.893 48.1467 313.893 48.84C313.893 49.72 313.673 50.4467 313.233 51.02C312.806 51.5933 312.206 52.02 311.433 52.3C310.673 52.5667 309.779 52.7 308.753 52.7Z" fill="white"/>
<rect x="175" y="25" width="40" height="40" rx="20" fill="#565EFF"/>
<path opacity="0.2" d="M195 27.6667C204.56 27.6667 212.333 35.44 212.333 45C212.333 54.56 204.56 62.3333 195 62.3333C185.44 62.3333 177.667 54.56 177.667 45C177.667 35.44 185.44 27.6667 195 27.6667ZM195 25C183.953 25 175 33.9533 175 45C175 56.0467 183.953 65 195 65C206.047 65 215 56.0467 215 45C215 33.9533 206.047 25 195 25Z" fill="white"/>
<path opacity="0.3" d="M191.03 52.5V51.2C191.39 50.4267 191.863 49.7333 192.45 49.12C193.036 48.4933 193.676 47.8733 194.37 47.26C194.89 46.7933 195.316 46.4067 195.65 46.1C195.983 45.7933 196.243 45.52 196.43 45.28C196.616 45.04 196.75 44.7933 196.83 44.54C196.91 44.2867 196.95 43.9733 196.95 43.6C196.95 42.36 196.163 41.74 194.59 41.74C194.056 41.74 193.523 41.8 192.99 41.92C192.47 42.0267 191.97 42.1733 191.49 42.36V39.98C191.996 39.8067 192.583 39.6733 193.25 39.58C193.93 39.4733 194.576 39.42 195.19 39.42C196.683 39.42 197.803 39.7933 198.55 40.54C199.31 41.2733 199.69 42.2733 199.69 43.54C199.69 44.42 199.47 45.1733 199.03 45.8C198.603 46.4133 198.043 47.02 197.35 47.62C196.803 48.1 196.283 48.5667 195.79 49.02C195.296 49.46 194.883 49.9267 194.55 50.42H199.81V52.5H191.03Z" fill="white"/>
<g clip-path="url(#clip0_7678_94435)">
<rect x="56" y="20" width="50" height="50" rx="25" fill="#565EFF"/>
<path opacity="0.2" d="M81 24C92.58 24 102 33.42 102 45C102 56.58 92.58 66 81 66C69.42 66 60 56.58 60 45C60 33.42 69.42 24 81 24ZM81 20C67.19 20 56 31.19 56 45C56 58.81 67.19 70 81 70C94.81 70 106 58.81 106 45C106 31.19 94.81 20 81 20Z" fill="white"/>
<g clip-path="url(#clip1_7678_94435)">
<path d="M80.9997 20V24C71.6797 24 63.7597 30.1 61.0297 38.52L57.2197 37.28C60.4697 27.25 69.8897 20 80.9997 20Z" fill="white"/>
<path d="M68.67 61.9812L66.31 65.2312C60.06 60.6912 56 53.3212 56 45.0012C56 42.3012 56.43 39.7113 57.22 37.2812L61.03 38.5212C60.36 40.5612 60 42.7412 60 45.0012C60 51.9812 63.42 58.1712 68.67 61.9812V61.9812Z" fill="white"/>
<path d="M95.6896 65.2266C91.5696 68.2266 86.4896 69.9966 80.9996 69.9966C75.5096 69.9966 70.4296 68.2266 66.3096 65.2266L68.6696 61.9766C72.1296 64.5066 76.3996 65.9966 80.9996 65.9966C85.5996 65.9966 89.8696 64.5066 93.3296 61.9766L95.6896 65.2266V65.2266Z" fill="white"/>
<path d="M106 45.0012C106 53.3212 101.94 60.6912 95.6901 65.2312L93.3301 61.9812C98.5801 58.1712 102 51.9812 102 45.0012C102 42.7412 101.64 40.5612 100.97 38.5212L104.78 37.2812C105.57 39.7113 106 42.3012 106 45.0012V45.0012Z" fill="white"/>
<path d="M104.78 37.28L100.97 38.52C98.24 30.1 90.32 24 81 24V20C92.11 20 101.53 27.25 104.78 37.28Z" fill="white"/>
</g>
<path d="M80.4168 52V41.56L78.3168 41.9V39.64L83.1168 38.92V52H80.4168Z" fill="white"/>
</g>
<defs>
<clipPath id="clip0_7678_94435">
<rect x="56" y="20" width="50" height="50" rx="25" fill="white"/>
</clipPath>
<clipPath id="clip1_7678_94435">
<rect width="50" height="50" fill="white" transform="translate(56 20)"/>
</clipPath>
</defs>
</svg>
