<svg width="390" height="90" viewBox="0 0 390 90" fill="none" xmlns="http://www.w3.org/2000/svg">
<rect opacity="0.2" x="81" y="44" width="228" height="1.36986" fill="white"/>
<rect x="81" y="44" width="114" height="1.36986" fill="#F0F0F0"/>
<rect x="289" y="25" width="40" height="40" rx="20" fill="#565EFF"/>
<path opacity="0.2" d="M309 27.6667C318.56 27.6667 326.333 35.44 326.333 45C326.333 54.56 318.56 62.3333 309 62.3333C299.44 62.3333 291.667 54.56 291.667 45C291.667 35.44 299.44 27.6667 309 27.6667ZM309 25C297.953 25 289 33.9533 289 45C289 56.0467 297.953 65 309 65C320.047 65 329 56.0467 329 45C329 33.9533 320.047 25 309 25Z" fill="white"/>
<path opacity="0.3" d="M308.753 52.7C308.366 52.7 307.933 52.6733 307.453 52.62C306.973 52.5667 306.506 52.4933 306.053 52.4C305.599 52.3067 305.219 52.2 304.913 52.08V49.72C305.459 49.9467 306.026 50.1133 306.613 50.22C307.213 50.3267 307.793 50.38 308.353 50.38C309.299 50.38 309.999 50.2533 310.453 50C310.919 49.7333 311.153 49.2533 311.153 48.56C311.153 47.9867 310.946 47.58 310.533 47.34C310.133 47.1 309.553 46.98 308.793 46.98H306.773L306.973 45H308.653C309.426 45 309.993 44.8733 310.353 44.62C310.713 44.3533 310.893 43.94 310.893 43.38C310.893 42.82 310.686 42.4067 310.273 42.14C309.873 41.86 309.226 41.72 308.333 41.72C307.759 41.72 307.186 41.78 306.613 41.9C306.053 42.02 305.559 42.1733 305.133 42.36V40.06C305.559 39.8733 306.106 39.72 306.773 39.6C307.453 39.48 308.126 39.42 308.793 39.42C310.393 39.42 311.599 39.7533 312.413 40.42C313.226 41.0867 313.633 41.9467 313.633 43C313.633 43.6267 313.486 44.22 313.193 44.78C312.913 45.3267 312.473 45.7267 311.873 45.98C312.566 46.1933 313.073 46.5533 313.393 47.06C313.726 47.5533 313.893 48.1467 313.893 48.84C313.893 49.72 313.673 50.4467 313.233 51.02C312.806 51.5933 312.206 52.02 311.433 52.3C310.673 52.5667 309.779 52.7 308.753 52.7Z" fill="white"/>
<g clip-path="url(#clip0_7678_94735)">
<rect x="170" y="20" width="50" height="50" rx="25" fill="#565EFF"/>
<path d="M195 23.3333C206.95 23.3333 216.667 33.05 216.667 45C216.667 56.95 206.95 66.6667 195 66.6667C183.05 66.6667 173.333 56.95 173.333 45C173.333 33.05 183.05 23.3333 195 23.3333ZM195 20C181.192 20 170 31.1917 170 45C170 58.8083 181.192 70 195 70C208.808 70 220 58.8083 220 45C220 31.1917 208.808 20 195 20Z" fill="white"/>
<path d="M190.53 52V50.7C190.89 49.9267 191.363 49.2333 191.95 48.62C192.536 47.9933 193.176 47.3733 193.87 46.76C194.39 46.2933 194.816 45.9067 195.15 45.6C195.483 45.2933 195.743 45.02 195.93 44.78C196.116 44.54 196.25 44.2933 196.33 44.04C196.41 43.7867 196.45 43.4733 196.45 43.1C196.45 41.86 195.663 41.24 194.09 41.24C193.556 41.24 193.023 41.3 192.49 41.42C191.97 41.5267 191.47 41.6733 190.99 41.86V39.48C191.496 39.3067 192.083 39.1733 192.75 39.08C193.43 38.9733 194.076 38.92 194.69 38.92C196.183 38.92 197.303 39.2933 198.05 40.04C198.81 40.7733 199.19 41.7733 199.19 43.04C199.19 43.92 198.97 44.6733 198.53 45.3C198.103 45.9133 197.543 46.52 196.85 47.12C196.303 47.6 195.783 48.0667 195.29 48.52C194.796 48.96 194.383 49.4267 194.05 49.92H199.31V52H190.53Z" fill="white"/>
</g>
<rect x="61" y="25" width="40" height="40" rx="20" fill="#5ABB75"/>
<rect x="62.5" y="26.5" width="37" height="37" rx="18.5" stroke="white" stroke-opacity="0.2" stroke-width="3"/>
<path d="M89 40L78.334 50.666L73 45.334" stroke="white" stroke-width="4" stroke-linecap="round" stroke-linejoin="round"/>
<defs>
<clipPath id="clip0_7678_94735">
<rect x="170" y="20" width="50" height="50" rx="25" fill="white"/>
</clipPath>
</defs>
</svg>
