<svg width="390" height="90" viewBox="0 0 390 90" fill="none" xmlns="http://www.w3.org/2000/svg">
<rect opacity="0.2" x="81" y="44" width="228" height="1.36986" fill="white"/>
<rect x="81" y="44" width="228" height="1.36986" fill="#F0F0F0"/>
<g clip-path="url(#clip0_7678_95292)">
<rect x="284" y="20" width="50" height="50" rx="25" fill="#565EFF"/>
<path d="M309 23.3333C320.95 23.3333 330.667 33.05 330.667 45C330.667 56.95 320.95 66.6667 309 66.6667C297.05 66.6667 287.333 56.95 287.333 45C287.333 33.05 297.05 23.3333 309 23.3333ZM309 20C295.192 20 284 31.1917 284 45C284 58.8083 295.192 70 309 70C322.808 70 334 58.8083 334 45C334 31.1917 322.808 20 309 20Z" fill="white"/>
<path d="M308.253 52.2C307.866 52.2 307.433 52.1733 306.953 52.12C306.473 52.0667 306.006 51.9933 305.553 51.9C305.099 51.8067 304.719 51.7 304.413 51.58V49.22C304.959 49.4467 305.526 49.6133 306.113 49.72C306.713 49.8267 307.293 49.88 307.853 49.88C308.799 49.88 309.499 49.7533 309.953 49.5C310.419 49.2333 310.653 48.7533 310.653 48.06C310.653 47.4867 310.446 47.08 310.033 46.84C309.633 46.6 309.053 46.48 308.293 46.48H306.273L306.473 44.5H308.153C308.926 44.5 309.493 44.3733 309.853 44.12C310.213 43.8533 310.393 43.44 310.393 42.88C310.393 42.32 310.186 41.9067 309.773 41.64C309.373 41.36 308.726 41.22 307.833 41.22C307.259 41.22 306.686 41.28 306.113 41.4C305.553 41.52 305.059 41.6733 304.633 41.86V39.56C305.059 39.3733 305.606 39.22 306.273 39.1C306.953 38.98 307.626 38.92 308.293 38.92C309.893 38.92 311.099 39.2533 311.913 39.92C312.726 40.5867 313.133 41.4467 313.133 42.5C313.133 43.1267 312.986 43.72 312.693 44.28C312.413 44.8267 311.973 45.2267 311.373 45.48C312.066 45.6933 312.573 46.0533 312.893 46.56C313.226 47.0533 313.393 47.6467 313.393 48.34C313.393 49.22 313.173 49.9467 312.733 50.52C312.306 51.0933 311.706 51.52 310.933 51.8C310.173 52.0667 309.279 52.2 308.253 52.2Z" fill="white"/>
</g>
<rect x="175" y="25" width="40" height="40" rx="20" fill="#5ABB75"/>
<rect x="176.5" y="26.5" width="37" height="37" rx="18.5" stroke="white" stroke-opacity="0.2" stroke-width="3"/>
<path d="M203 40L192.334 50.666L187 45.334" stroke="white" stroke-width="4" stroke-linecap="round" stroke-linejoin="round"/>
<rect x="61" y="25" width="40" height="40" rx="20" fill="#5ABB75"/>
<rect x="62.5" y="26.5" width="37" height="37" rx="18.5" stroke="white" stroke-opacity="0.2" stroke-width="3"/>
<path d="M89 40L78.334 50.666L73 45.334" stroke="white" stroke-width="4" stroke-linecap="round" stroke-linejoin="round"/>
<defs>
<clipPath id="clip0_7678_95292">
<rect x="284" y="20" width="50" height="50" rx="25" fill="white"/>
</clipPath>
</defs>
</svg>
