<svg width="12" height="14" viewBox="0 0 12 14" fill="none" xmlns="http://www.w3.org/2000/svg">
<path fill-rule="evenodd" clip-rule="evenodd" d="M5.99928 1.66732C3.63554 1.66732 1.73958 3.54683 1.73958 5.84059C1.73958 7.20908 2.22961 7.8567 3.4636 9.41919L3.46557 9.42169C3.98832 10.0836 4.62671 10.8919 5.36692 11.958C5.66605 12.3888 6.33251 12.3888 6.63165 11.958C7.37187 10.8919 8.01026 10.0836 8.53301 9.42167L8.53497 9.41919C9.76896 7.8567 10.259 7.20908 10.259 5.84059C10.259 3.54683 8.36302 1.66732 5.99928 1.66732ZM0.40625 5.84059C0.40625 2.7883 2.92151 0.333984 5.99928 0.333984C9.07706 0.333984 11.5923 2.7883 11.5923 5.84059C11.5923 7.69988 10.8161 8.68253 9.63225 10.1811C9.61536 10.2025 9.59839 10.224 9.58133 10.2456C9.05964 10.9061 8.44271 11.6875 7.72686 12.7184C6.89735 13.9131 5.10121 13.9131 4.27171 12.7184C3.55586 11.6875 2.93892 10.9061 2.41723 10.2456C2.40018 10.224 2.38321 10.2025 2.36632 10.1811C1.1825 8.68253 0.40625 7.69988 0.40625 5.84059ZM5.99931 5.49892C5.76289 5.49892 5.57123 5.69058 5.57123 5.927C5.57123 6.16343 5.76289 6.35508 5.99931 6.35508C6.23573 6.35508 6.42739 6.16343 6.42739 5.927C6.42739 5.69058 6.23573 5.49892 5.99931 5.49892ZM4.23789 5.927C4.23789 4.9542 5.02651 4.16559 5.99931 4.16559C6.97211 4.16559 7.76072 4.9542 7.76072 5.927C7.76072 6.89981 6.97211 7.68842 5.99931 7.68842C5.02651 7.68842 4.23789 6.89981 4.23789 5.927Z" fill="#464A54"/>
</svg>
