<svg width="40" height="40" viewBox="0 0 40 40" fill="none" xmlns="http://www.w3.org/2000/svg">
<rect width="40" height="40" rx="20" fill="#0050B5" fill-opacity="0.1"/>
<g clip-path="url(#clip0_3620_44941)">
<path d="M11 20H29C30.1 20 31 20.9 31 22V31H9V22C9 20.9 9.9 20 11 20Z" stroke="#0050B5" stroke-width="2" stroke-linecap="round" stroke-linejoin="round"/>
<path d="M15 13C16.1046 13 17 12.1046 17 11C17 9.89543 16.1046 9 15 9C13.8954 9 13 9.89543 13 11C13 12.1046 13.8954 13 15 13Z" stroke="#0050B5" stroke-width="2" stroke-linecap="round" stroke-linejoin="round"/>
<path d="M13 15H17C18.1 15 19 15.9 19 17V20H11V17C11 15.9 11.9 15 13 15Z" stroke="#0050B5" stroke-width="2" stroke-linecap="round" stroke-linejoin="round"/>
<path d="M29 9.5H21C20.4477 9.5 20 9.94772 20 10.5V15.5C20 16.0523 20.4477 16.5 21 16.5H29C29.5523 16.5 30 16.0523 30 15.5V10.5C30 9.94772 29.5523 9.5 29 9.5Z" stroke="#0050B5" stroke-width="2" stroke-linecap="round" stroke-linejoin="round"/>
<path d="M25 16.5V20" stroke="#0050B5" stroke-width="2" stroke-linecap="round" stroke-linejoin="round"/>
</g>
<rect x="1" y="1" width="38" height="38" rx="19" stroke="#0050B5" stroke-opacity="0.1" stroke-width="2"/>
<defs>
<clipPath id="clip0_3620_44941">
<rect width="24" height="24" fill="white" transform="translate(8 8)"/>
</clipPath>
</defs>
</svg>
