<svg width="40" height="40" viewBox="0 0 40 40" fill="none" xmlns="http://www.w3.org/2000/svg">
<rect width="40" height="40" rx="20" fill="#0050B5" fill-opacity="0.1"/>
<g clip-path="url(#clip0_3620_44935)">
<path d="M15.33 9H24.67C25.96 9 27 10.23 27 11.75V28.25C27 29.77 25.96 31 24.67 31H15.33C14.04 31 13 29.77 13 28.25V11.75C13 10.23 14.04 9 15.33 9Z" stroke="#0050B5" stroke-width="2" stroke-linecap="round" stroke-linejoin="round"/>
<path d="M18 12H22" stroke="#0050B5" stroke-width="2" stroke-linecap="round" stroke-linejoin="round"/>
<path d="M21 28.0703C21 27.518 20.5523 27.0703 20 27.0703C19.4477 27.0703 19 27.518 19 28.0703C19 28.6226 19.4477 29.0703 20 29.0703C20.5523 29.0703 21 28.6226 21 28.0703Z" fill="#0050B5"/>
</g>
<rect x="1" y="1" width="38" height="38" rx="19" stroke="#0050B5" stroke-opacity="0.1" stroke-width="2"/>
<defs>
<clipPath id="clip0_3620_44935">
<rect width="16" height="24" fill="white" transform="translate(12 8)"/>
</clipPath>
</defs>
</svg>
