<svg width="24" height="24" viewBox="0 0 24 24" fill="none" xmlns="http://www.w3.org/2000/svg">
<g clip-path="url(#clip0_1479_35839)">
<path d="M18.318 16.3413L22.7907 20.814L13.9748 20.8382H13.9744H13.974H13.9736L13.9735 20.8382L13.9732 20.8382H13.9727H13.9723H13.9719H13.9715H13.9711H13.9707H13.9702H13.9698H13.9694H13.969H13.9686H13.9682H13.9677H13.9673H13.9669H13.9665H13.9661H13.9657H13.9653H13.9649H13.9644H13.964H13.9636H13.9632H13.9628H13.9624H13.962H13.9616H13.9612H13.9607H13.9603H13.9599H13.9595H13.9591H13.9587H13.9583H13.9579H13.9575H13.9571H13.9567H13.9563H13.9559H13.9554H13.955H13.9546H13.9542H13.9538H13.9534H13.953H13.9526H13.9522H13.9518H13.9514H13.951H13.9506H13.9502H13.9498H13.9494H13.949H13.9486H13.9482H13.9478H13.9474H13.947H13.9466H13.9462H13.9458H13.9454H13.945H13.9446H13.9442H13.9438H13.9434H13.943H13.9426H13.9422H13.9418H13.9414H13.941H13.9406H13.9402H13.9398H13.9395H13.9391H13.9387H13.9383H13.9379H13.9375H13.9371H13.9367H13.9363H13.9359H13.9355H13.9351H13.9347H13.9344H13.934H13.9336H13.9332H13.9328H13.9324H13.932H13.9316H13.9313H13.9309H13.9305H13.9301H13.9297H13.9293H13.9289H13.9286H13.9282H13.9278H13.9274H13.927H13.9266H13.9263H13.9259H13.9255H13.9251H13.9247H13.9243H13.924H13.9236H13.9232H13.9228H13.9224H13.9221H13.9217H13.9213H13.9209H13.9206H13.9202H13.9198H13.9194H13.919H13.9187H13.9183H13.9179H13.9175H13.9172H13.9168H13.9164H13.916H13.9157H13.9153H13.9149H13.9146H13.9142H13.9138H13.9134H13.9131H13.9127H13.9123H13.912H13.9116H13.9112H13.9109H13.9105H13.9101H13.9098H13.9094H13.909H13.9087H13.9083H13.9079H13.9076H13.9072H13.9068H13.9065H13.9061H13.9057H13.9054H13.905H13.9047H13.9043H13.9039H13.9036H13.9032H13.9029H13.9025H13.9021H13.9018H13.9014H13.9011H13.9007H13.9003H13.9H13.8996H13.8993H13.8989H13.8986H13.8982H13.8979H13.8975H13.8971H13.8968H13.8964H13.8961H13.8957H13.8954H13.895H13.8947H13.8943H13.894H13.8936H13.8933H13.8929H13.8926H13.8922H13.8919H13.8915H13.8912H13.8909H13.8905H13.8902H13.8898H13.8895H13.8891H13.8888H13.8884H13.8881H13.8878H13.8874H13.8871H13.8867H13.8864H13.886H13.8857H13.8854H13.885H13.8847H13.8844H13.884H13.8837H13.8833H13.883H13.8827H13.8823H13.882H13.8817H13.8813H13.881H13.8807H13.8803H13.88H13.8797H13.8793H13.879H13.8787H13.8783H13.878H13.8777H13.8773H13.877H13.8767H13.8764H13.876H13.8757H13.8754H13.8751H13.8747H13.8744H13.8741H13.8738H13.8734H13.8731H13.8728H13.8725H13.8721H13.8718H13.8715H13.8712H13.8709H13.8705H13.8702H13.8699H13.8696H13.8693H13.8689H13.8686H13.8683H13.868H13.8677H13.8674H13.867H13.8667H13.8664H13.8661H13.8658H13.8655H13.8652H13.8649H13.8645H13.8642H13.8639H13.8636H13.8633H13.863H13.8627H13.8624H13.8621H13.8618H13.8615H13.8612H13.8609H13.8605H13.8602H13.8599H13.8596H13.8593H13.859H13.8587H13.8584H13.8581H13.8578H13.8575H13.8572H13.8569H13.8566H13.8563H13.856H13.8557H13.8554H13.8551H13.8548H13.8546H13.8543H13.854H13.8537H13.8534H13.8531H13.8528H13.8525H13.8522H13.8519H13.8516H13.8513H13.851H13.8508H13.8505H13.8502H13.8499H13.8496H13.8493H13.849H13.8488H13.8485H13.8482H13.8479H13.8476H13.8473H13.8471H13.8468H13.8465H13.8462H13.8459H13.8457H13.8454H13.8451H13.8448H13.8445H13.8443H13.844H13.8437H13.8434H13.8432H13.8429H13.8426H13.8423H13.8421H13.8418H13.8415H13.8413H13.841H13.8407H13.8404H13.8402H13.8399H13.8396H13.8394H13.8391H13.8388H13.8386H13.8383H13.838H13.8378H13.8375H13.8373H13.837H13.8367H13.8365H13.8362H13.8359H13.8357H13.8354H13.8352H13.8349H13.8347H13.8344H13.8341H13.8339H13.8336H13.8334H13.8331H13.8329H13.8326H13.8324H13.8321H13.8319H13.8316H13.8314H13.8311H13.8309H13.8306H13.8304H13.8301H13.8299H13.8296H13.8294H13.8291H13.8289H13.8286H13.8284H13.8281H13.8279H13.8277H13.8274H13.8272H13.8269H13.8267H13.8265H13.8262H13.826H13.8258H13.8255H13.8253H13.825H13.8248H13.8246H13.8243H13.8241H13.8239H13.8236H13.8234H13.8232H13.8229H13.8227H13.8225H13.8223H13.822H13.8218H13.8216H13.8214H13.8211H13.8209H13.8207H13.8205H13.8202H13.82H13.8198H13.8196H13.8193H13.8191H13.8189H13.8187H13.8185H13.8182H13.818H13.8178H13.8176H13.8174H13.8172H13.8169H13.8167H13.8165H13.8163H13.8161H13.8159H13.8157H13.8155H13.8153H13.815H13.8148H13.8146H13.8144H13.8142H13.814H13.8138H13.8136H13.8134H13.8132H13.813H13.8128H13.8126H13.8124H13.8122H13.812H13.8118H13.8116H13.8114H13.8112H13.811H13.8108H13.8106H13.8104H13.8102H13.81H9.88785H4.86702C2.45696 20.8382 0.5 18.8812 0.5 16.4712V7.52815C0.5 5.11809 2.45696 3.16113 4.86702 3.16113H13.81C16.2201 3.16113 18.177 5.11809 18.177 7.52815V15.8587L18.0632 16.0865L18.318 16.3413Z" fill="white" stroke="#0050B5"/>
<path d="M5.21356 10.9015V9.50618C5.21356 8.60529 5.94416 7.87469 6.84505 7.87469H8.24034V4.30957H4.86748C3.08767 4.30957 1.64844 5.7488 1.64844 7.52861V10.9015H5.21356Z" fill="#003C71"/>
<path d="M10.4375 7.87469H11.8328C12.7337 7.87469 13.4643 8.60529 13.4643 9.50618V10.9015H17.0294V7.52861C17.0294 5.7488 15.5902 4.30957 13.8104 4.30957H10.4375V7.87469Z" fill="#003C71"/>
<path d="M8.24034 16.1254H6.84505C5.94416 16.1254 5.21356 15.3948 5.21356 14.4939V13.0986H1.64844V16.4715C1.64844 18.2513 3.08767 19.6905 4.86748 19.6905H8.24034V16.1254Z" fill="#003C71"/>
<path d="M17.0184 16.6583L13.4643 13.0986V14.4994C13.4643 15.4003 12.7337 16.1309 11.8328 16.1309H10.4375V19.6905H13.8104C13.8104 19.6905 13.8598 19.6905 13.8873 19.685L20.0287 19.6686L17.0184 16.6583Z" fill="#03A797"/>
</g>
<defs>
<clipPath id="clip0_1479_35839">
<rect width="24" height="18.677" fill="white" transform="translate(0 2.66113)"/>
</clipPath>
</defs>
</svg>
