<svg width="20" height="25" viewBox="0 0 20 25" fill="none" xmlns="http://www.w3.org/2000/svg">
<path d="M15.8424 7.79822C14.905 7.79822 14.0507 7.44068 13.4034 6.85303L7.55288 11.0054C7.72163 11.4316 7.81529 11.897 7.81529 12.3842C7.81529 12.8714 7.72163 13.3368 7.55288 13.763L13.4034 17.9154C14.0507 17.3277 14.9053 16.9702 15.8424 16.9702C17.8625 16.9702 19.5 18.6297 19.5 20.6771C19.5 22.7245 17.8625 24.3848 15.8424 24.3848C13.8222 24.3848 12.1847 22.7252 12.1847 20.6779C12.1847 20.1903 12.2784 19.7253 12.4471 19.299L6.59656 15.1467C5.94929 15.7343 5.09465 16.0919 4.15764 16.0919C2.13748 16.0915 0.5 14.432 0.5 12.3846C0.5 10.3372 2.13748 8.67767 4.15764 8.67767C5.09502 8.67767 5.94929 9.03521 6.59656 9.62287L12.4471 5.4705C12.2784 5.04426 12.1847 4.57887 12.1847 4.09168C12.1847 2.04431 13.8222 0.384766 15.8424 0.384766C17.8625 0.384766 19.5 2.04431 19.5 4.09168C19.5 6.13905 17.8625 7.79859 15.8424 7.79859V7.79822Z" fill="#F0F0F0"/>
</svg>
