<svg width="40" height="40" viewBox="0 0 40 40" fill="none" xmlns="http://www.w3.org/2000/svg">
<rect width="40" height="40" rx="10" fill="#F0F0F0"/>
<path d="M23.9271 16.4423H23.8962C23.4013 16.4423 22.9502 16.2542 22.6064 15.942L22.3087 15.6718L21.9809 15.9044L18.0805 18.6727L17.7606 18.8997L17.905 19.2645C17.9949 19.4915 18.0448 19.7394 18.0448 19.9996C18.0448 20.2599 17.9949 20.5078 17.905 20.7348L17.7606 21.0995L18.0805 21.3266L21.9809 24.0948L22.3087 24.3275L22.6064 24.0573C22.9502 23.7451 23.4015 23.557 23.8962 23.557C24.9606 23.557 25.8346 24.4331 25.8346 25.5282C25.8346 26.6235 24.9604 27.5 23.8962 27.5C22.8319 27.5 21.9578 26.6238 21.9578 25.5287C21.9578 25.2682 22.0077 25.0206 22.0976 24.7936L22.242 24.4288L21.9221 24.2018L18.0217 21.4335L17.6939 21.2008L17.3962 21.4711C17.0524 21.7832 16.6011 21.9714 16.1065 21.9714L23.9271 16.4423ZM23.9271 16.4423C24.9774 16.4256 25.8346 15.5558 25.8346 14.4713C25.8346 13.3762 24.9606 12.5 23.8962 12.5C22.8319 12.5 21.9578 13.3762 21.9578 14.4713C21.9578 14.7315 22.0077 14.9794 22.0976 15.2064L22.242 15.5712L21.9221 15.7982L18.0217 18.5665L17.6939 18.7992L17.3962 18.5289C17.0524 18.2167 16.6013 18.0286 16.1064 18.0286C15.0421 18.0286 14.168 18.9048 14.168 19.9999C14.168 21.0949 15.042 21.9712 16.1064 21.9714L23.9271 16.4423Z" fill="#84898E" stroke="#84898E"/>
</svg>
