<svg width="24" height="24" viewBox="0 0 24 24" fill="none" xmlns="http://www.w3.org/2000/svg">
<g id="passport">
<path id="Icon" d="M9.5998 16.8H14.3998M6.79981 21.6H17.1998C18.3044 21.6 19.1998 20.7046 19.1998 19.6V4.4C19.1998 3.29543 18.3044 2.4 17.1998 2.4H6.7998C5.69524 2.4 4.7998 3.29543 4.7998 4.4V19.6C4.7998 20.7046 5.69524 21.6 6.79981 21.6ZM14.3998 8.4C14.3998 9.72548 13.3253 10.8 11.9998 10.8C10.6743 10.8 9.5998 9.72548 9.5998 8.4C9.5998 7.07452 10.6743 6 11.9998 6C13.3253 6 14.3998 7.07452 14.3998 8.4Z" stroke="#84898E" stroke-width="2" stroke-linecap="round" stroke-linejoin="round"/>
</g>
</svg>
